<svg width="24" height="24" viewBox="0 0 24 24" fill="none" xmlns="http://www.w3.org/2000/svg">
<path fill-rule="evenodd" clip-rule="evenodd" d="M15.586 2.75696C15.9611 2.38202 16.4697 2.17139 17 2.17139C17.5303 2.17139 18.0389 2.38202 18.414 2.75696L21.243 5.58596C21.6179 5.96101 21.8286 6.46963 21.8286 6.99996C21.8286 7.53029 21.6179 8.0389 21.243 8.41396L18.414 11.243C18.0389 11.6179 17.5303 11.8285 17 11.8285C16.4697 11.8285 15.9611 11.6179 15.586 11.243L12.757 8.41396C12.3821 8.0389 12.1714 7.53029 12.1714 6.99996C12.1714 6.46963 12.3821 5.96101 12.757 5.58596L15.586 2.75696ZM17 4.17196L14.172 6.99996L17 9.82796L19.828 6.99996L17 4.17196ZM9 2.99996C9.53043 2.99996 10.0391 3.21067 10.4142 3.58575C10.7893 3.96082 11 4.46953 11 4.99996V8.99996C11 9.53039 10.7893 10.0391 10.4142 10.4142C10.0391 10.7892 9.53043 11 9 11H5C4.46957 11 3.96086 10.7892 3.58579 10.4142C3.21071 10.0391 3 9.53039 3 8.99996V4.99996C3 4.46953 3.21071 3.96082 3.58579 3.58575C3.96086 3.21067 4.46957 2.99996 5 2.99996H9ZM9 4.99996H5V8.99996H9V4.99996ZM21 15C21 14.4695 20.7893 13.9608 20.4142 13.5857C20.0391 13.2107 19.5304 13 19 13H15C14.4696 13 13.9609 13.2107 13.5858 13.5857C13.2107 13.9608 13 14.4695 13 15V19C13 19.5304 13.2107 20.0391 13.5858 20.4142C13.9609 20.7892 14.4696 21 15 21H19C19.5304 21 20.0391 20.7892 20.4142 20.4142C20.7893 20.0391 21 19.5304 21 19V15ZM19 15V19H15V15H19ZM9 13C9.53043 13 10.0391 13.2107 10.4142 13.5857C10.7893 13.9608 11 14.4695 11 15V19C11 19.5304 10.7893 20.0391 10.4142 20.4142C10.0391 20.7892 9.53043 21 9 21H5C4.46957 21 3.96086 20.7892 3.58579 20.4142C3.21071 20.0391 3 19.5304 3 19V15C3 14.4695 3.21071 13.9608 3.58579 13.5857C3.96086 13.2107 4.46957 13 5 13H9ZM9 15H5V19H9V15Z" fill="#7300E5"/>
</svg>
