<svg width="16" height="16" viewBox="0 0 16 16" fill="none" xmlns="http://www.w3.org/2000/svg">
<path d="M9.80467 3.75736L13.576 7.52869C13.701 7.65371 13.7712 7.82325 13.7712 8.00002C13.7712 8.1768 13.701 8.34634 13.576 8.47136L9.80467 12.2427C9.67893 12.3641 9.51053 12.4313 9.33573 12.4298C9.16093 12.4283 8.99373 12.3582 8.87012 12.2346C8.74652 12.111 8.6764 11.9438 8.67488 11.769C8.67337 11.5942 8.74056 11.4258 8.862 11.3L11.4953 8.66669H2.66667C2.48986 8.66669 2.32029 8.59645 2.19526 8.47143C2.07024 8.34641 2 8.17684 2 8.00002C2 7.82321 2.07024 7.65364 2.19526 7.52862C2.32029 7.4036 2.48986 7.33336 2.66667 7.33336H11.4953L8.862 4.70003C8.79833 4.63853 8.74754 4.56496 8.7126 4.48363C8.67766 4.40229 8.65927 4.31481 8.6585 4.22629C8.65773 4.13777 8.6746 4.04999 8.70812 3.96806C8.74164 3.88612 8.79114 3.81169 8.85374 3.7491C8.91633 3.6865 8.99077 3.637 9.0727 3.60348C9.15463 3.56996 9.24241 3.55309 9.33093 3.55386C9.41945 3.55463 9.50693 3.57302 9.58827 3.60796C9.66961 3.6429 9.74317 3.69369 9.80467 3.75736Z" fill="#607080"/>
</svg>
