<svg width="192" height="233" viewBox="0 0 192 233" fill="none" xmlns="http://www.w3.org/2000/svg">
<g clip-path="url(#clip0_1072_45445)">
<path d="M28.9951 145.438L29.0838 145.445C29.9641 146.487 33.0008 149.52 34.1199 150.058C31.9158 152.263 29.7798 154.542 27.562 156.727C26.9615 155.436 23.9863 152.794 22.8398 151.691L22.8467 151.624C23.7679 150.864 28.7017 146.239 28.9951 145.438Z" fill="#7B2F05"/>
<path d="M84.2355 142.715C84.2219 142.319 84.2219 141.929 84.2492 141.532C84.372 139.791 85.1295 138.237 86.4874 137.108C86.6853 136.94 86.8969 136.785 87.1153 136.644C87.3336 136.503 87.5588 136.375 87.7908 136.254C88.0228 136.14 88.2617 136.032 88.5073 135.945C88.753 135.857 89.0055 135.777 89.258 135.716C91.1414 135.259 95.0993 135.4 97.1124 135.541C97.1943 135.568 97.2762 135.595 97.3581 135.622C98.0746 135.837 99.03 135.777 99.8011 135.898C99.8761 136.456 99.4599 137.236 99.5554 137.673C99.8488 139.024 101.528 140.591 101.514 142.151C101.289 142.413 101.268 142.386 100.907 142.413C100.859 142.413 100.804 142.413 100.75 142.42C100.518 142.433 100.306 142.514 100.088 142.588L85.9961 142.682L84.2355 142.715Z" fill="#235373"/>
<path d="M12.1265 141.297C14.2351 139.28 16.3164 137.209 18.5001 135.272C18.9778 135.857 19.5646 136.321 20.1378 136.812L22.1577 138.769C24.2186 140.799 26.7981 143.67 28.9886 145.432C28.6951 146.232 23.7614 150.858 22.8401 151.611C20.5063 149.352 18.0838 147.18 15.8114 144.86C14.6172 143.65 13.3957 142.446 12.1265 141.297Z" fill="#A9470E"/>
<path d="M20.1446 136.812L22.1645 138.769C20.3425 140.638 18.5205 142.527 16.5756 144.275C15.8727 143.596 15.2108 142.91 14.583 142.157C16.5006 140.456 18.3089 138.614 20.1446 136.812Z" fill="#FAC88D"/>
<path d="M22.8398 151.685C23.9794 152.794 26.9615 155.43 27.562 156.721C26.7159 157.561 25.8287 158.381 25.0235 159.262C23.7815 160.567 22.5191 161.844 21.2362 163.101C18.4247 165.885 15.9954 168.097 11.7986 168.272C11.6144 168.278 11.4301 168.285 11.239 168.279C11.0548 168.279 10.8705 168.272 10.6795 168.258C10.4952 168.245 10.311 168.231 10.1267 168.211C9.94248 168.191 9.75823 168.171 9.57399 168.137C9.38974 168.11 9.20549 168.077 9.02807 168.036C8.84382 167.996 8.66639 167.956 8.48897 167.909C8.31155 167.862 8.1273 167.815 7.9567 167.761C7.77927 167.707 7.60185 167.646 7.43125 167.586C7.25383 167.525 7.08323 167.458 6.91263 167.384C6.74203 167.31 6.57143 167.236 6.40765 167.156C6.23705 167.075 6.07328 166.994 5.9095 166.907C5.74572 166.819 5.58877 166.725 5.425 166.631C5.26804 166.537 5.11109 166.436 4.95414 166.335C4.80401 166.235 4.64706 166.127 4.50376 166.013C4.35363 165.905 4.21032 165.791 4.06702 165.67C3.92372 165.555 3.78724 165.434 3.65076 165.307C1.92428 163.733 0.593605 161.454 0.231934 159.148L0.347942 159C0.668669 159.054 0.723261 159.202 0.927981 159.417C1.60356 160.136 2.38149 160.661 3.2072 161.205C5.22028 162.53 7.60185 163.095 9.99025 162.577C13.2112 161.891 15.4494 159.175 17.5922 156.916C18.3292 156.136 19.2231 155.356 19.8032 154.461L19.8919 154.475C20.9018 153.594 21.8845 152.653 22.8398 151.685Z" fill="#7B2F05"/>
<path d="M22.84 151.685C23.9797 152.794 26.9617 155.43 27.5623 156.721C26.7161 157.561 25.829 158.381 25.0237 159.262C23.4815 158.375 21.0726 155.867 19.8853 154.502C20.902 153.594 21.8847 152.653 22.84 151.685Z" fill="#581E02"/>
<path d="M12.1261 141.297C13.3953 142.44 14.6168 143.65 15.8179 144.86C18.0834 147.18 20.5128 149.352 22.8466 151.611L22.8398 151.678C21.8844 152.646 20.9017 153.587 19.885 154.495L19.7962 154.482C19.2094 155.376 18.3223 156.156 17.5853 156.936C15.4425 159.195 13.2043 161.911 9.98334 162.597C7.59494 163.108 5.21336 162.543 3.20028 161.225C2.37458 160.681 1.59665 160.156 0.92107 159.437C0.71635 159.215 0.661758 159.074 0.34103 159.02L0.225022 159.168C0.081718 158.428 -0.0138179 157.716 -0.00016994 156.963C0.081718 151.328 5.4795 147.637 9.2054 144.053C10.1539 143.112 11.1161 142.191 12.1261 141.297Z" fill="#A9470E"/>
<path d="M10.7886 145.896L12.4468 147.563C9.25321 150.515 6.2643 153.715 2.99561 156.579C3.21397 155.329 3.33681 153.789 3.89637 152.633C4.64701 151.066 9.29416 147.274 10.7886 145.896Z" fill="#F79D2B"/>
<path d="M12.1262 141.297C13.3955 142.44 14.617 143.65 15.818 144.86C18.0836 147.18 20.5129 149.352 22.8467 151.611L22.8399 151.678C21.8845 152.646 20.9019 153.587 19.8851 154.495L19.7964 154.482C17.2306 152.317 15.006 149.742 12.447 147.556L10.7887 145.889C10.3042 145.23 9.60135 144.773 9.19873 144.053C10.1541 143.112 11.1163 142.191 12.1262 141.297Z" fill="#7B2F05"/>
<path d="M89.8448 61.5815C90.0972 61.8034 90.3839 62.0119 90.5886 62.2741C95.1334 66.2074 99.3642 70.571 103.732 74.6993C106.181 77.0593 108.604 79.4394 111.006 81.8398C109 83.7426 107.007 85.6655 105.035 87.6019C103.875 88.7382 102.694 90.1098 101.37 91.0646C100.852 91.4411 100.156 91.8647 99.4871 91.8445C97.9858 91.7907 96.0751 89.5047 95.0651 88.4827C94.0006 87.0909 92.5061 85.8874 91.2232 84.6973C89.3466 82.9223 87.5314 81.08 85.6889 79.2714C85.0407 78.6528 84.4197 78.0073 83.7851 77.3753L82.9662 76.3802C82.5772 76.1247 82.2087 75.7079 81.8607 75.3918C81.3079 74.7531 80.5573 74.3093 79.95 73.7177C79.4382 73.2268 79.3017 72.7495 79.329 72.0569C79.3426 71.788 79.3631 71.5863 79.5201 71.3577C80.2639 70.2752 81.5809 69.3204 82.5363 68.4127C84.9588 66.1065 87.3267 63.7734 89.8448 61.5815Z" fill="#022745"/>
<path d="M89.8447 61.5815C90.0972 61.8034 90.3838 62.0119 90.5886 62.2741C91.0867 63.5247 92.1512 64.6475 93.0179 65.6762C95.3108 68.4127 98.8183 71.9225 100.285 75.0624C98.2792 77.1803 96.1706 79.2041 94.1234 81.2884C92.2331 80.4547 90.3565 79.6075 88.4799 78.7402C86.6989 77.9065 84.8632 76.8778 82.9525 76.3802C82.5635 76.1247 82.195 75.7078 81.847 75.3918C81.2943 74.7531 80.5436 74.3093 79.9363 73.7177C79.4245 73.2268 79.288 72.7495 79.3153 72.0569C79.329 71.788 79.3494 71.5863 79.5064 71.3577C80.2502 70.2752 81.5672 69.3204 82.5226 68.4127C84.9588 66.1065 87.3267 63.7734 89.8447 61.5815Z" fill="#235373"/>
<path d="M97.1123 135.541C102.469 135.346 107.894 135.501 113.258 135.521L139.141 135.555H155.71C158.76 135.548 161.954 135.34 164.984 135.662C166.11 135.783 167.304 136.456 168.109 137.222C169.392 138.439 169.87 140.086 169.863 141.801L169.856 142.581L100.088 142.588C100.306 142.52 100.517 142.44 100.749 142.419C100.804 142.413 100.852 142.419 100.906 142.413C101.268 142.393 101.289 142.419 101.514 142.151C101.527 140.591 99.8487 139.024 99.5553 137.673C99.4598 137.236 99.876 136.456 99.801 135.898C99.0298 135.783 98.0745 135.837 97.358 135.622C97.2761 135.595 97.1942 135.568 97.1123 135.541Z" fill="url(#paint0_linear_1072_45445)"/>
<path d="M81.854 75.3851C82.202 75.7011 82.5705 76.118 82.9595 76.3735L83.7784 77.3686C84.413 78.0006 85.034 78.6461 85.6823 79.2647C82.8844 82.2634 79.8955 85.1075 76.9885 88.0054C69.4207 95.5492 61.7983 103.039 54.1145 110.469C48.3823 116.117 42.616 121.724 36.8088 127.305C33.6561 130.364 30.5853 133.699 27.2211 136.523C26.9891 136.301 26.6888 135.951 26.4159 135.797C26.3749 135.783 26.3408 135.77 26.2998 135.75C25.6993 135.494 25.3104 135.077 24.8736 134.613L24.6484 134.909L24.8873 134.748C25.1534 135.104 25.4195 135.447 25.7198 135.777L25.6584 135.904C24.3345 134.802 23.113 133.054 21.5776 132.28C24.4642 129.309 27.6237 126.518 30.6604 123.688L44.5677 110.677C52.9612 102.878 61.1909 94.8971 69.4889 86.9968C73.5901 83.0971 77.8074 79.3184 81.854 75.3851Z" fill="#A9470E"/>
<path d="M83.7784 77.3686C84.4131 78.0006 85.0341 78.6461 85.6823 79.2647C82.8845 82.2634 79.8956 85.1075 76.9886 88.0053C69.4208 95.5492 61.7984 103.039 54.1145 110.469C48.3824 116.117 42.6161 121.724 36.8089 127.305C33.6562 130.364 30.5854 133.699 27.2212 136.523C26.9891 136.301 26.6889 135.951 26.4159 135.797C25.986 135.286 25.4674 134.862 24.9692 134.418C30.1214 128.992 35.6761 123.869 41.0398 118.638C49.638 110.173 58.3045 101.762 67.0255 93.4179C72.6007 88.1062 78.524 82.9895 83.7784 77.3686Z" fill="#FAC88D"/>
<path d="M131.348 9.28531C144.764 6.0647 157.457 7.84646 169.283 14.9264C179.744 21.1928 187.721 32.1859 190.594 43.885C193.542 55.8665 191.857 69.7238 185.278 80.3135C185.094 80.6094 184.903 80.8918 184.691 81.1674C184.807 80.3673 185.053 79.5874 185.149 78.7738C185.538 75.5263 184.685 72.4738 183.32 69.5356C183.395 69.3742 183.456 69.2196 183.518 69.0515C184.118 67.458 184.405 65.6023 184.719 63.9281C184.835 63.3431 184.937 62.7582 185.026 62.1732C185.114 61.5883 185.196 60.9966 185.265 60.4049C185.333 59.8132 185.387 59.2216 185.428 58.6299C185.469 58.0382 185.503 57.4465 185.524 56.8481C185.544 56.2565 185.551 55.6581 185.544 55.0664C185.538 54.4747 185.524 53.8763 185.49 53.2846C185.462 52.6929 185.421 52.1013 185.367 51.5096C185.312 50.9179 185.244 50.3262 185.169 49.7413C185.094 49.1496 184.998 48.5646 184.896 47.9797C184.794 47.3947 184.678 46.8098 184.555 46.2315C184.432 45.6533 184.289 45.0751 184.145 44.4969C183.995 43.9186 183.832 43.3471 183.661 42.7823C183.49 42.2176 183.306 41.646 183.108 41.088C182.91 40.5232 182.706 39.9651 182.487 39.4138C182.269 38.8625 182.037 38.3111 181.798 37.7665C181.559 37.2219 181.307 36.684 181.04 36.1461C179.839 33.7122 178.338 31.4799 176.687 29.3217C168.443 18.5437 156.037 12.1361 142.601 10.1325C140.376 9.80303 138.008 9.46012 135.756 9.40634C134.74 9.37944 132.317 9.66183 131.498 9.3391C131.457 9.33238 131.403 9.30548 131.348 9.28531Z" fill="#80CFE0"/>
<path d="M169.856 142.574C169.849 144.739 169.849 146.904 169.863 149.069C153.219 149.358 136.548 149.136 119.897 149.13L100.852 149.157C97.5966 149.157 94.2733 149.284 91.0319 149.096C90.834 148.894 90.1312 148.693 89.8514 148.578C88.0635 147.845 87.852 144.988 87.1969 143.388C86.7806 143.139 86.3029 143.004 85.8457 142.857L86.0027 142.675L100.094 142.581L169.856 142.574Z" fill="url(#paint1_linear_1072_45445)"/>
<path d="M91.2165 84.6906C92.4994 85.8807 93.9939 87.0909 95.0584 88.476C86.7332 96.4166 78.8446 104.781 70.7514 112.95L53.0021 130.983C47.6112 136.348 42.2748 141.767 36.9999 147.247L34.1201 150.051C33.001 149.513 29.9575 146.481 29.084 145.438L28.9953 145.432C26.8048 143.663 24.2185 140.799 22.1645 138.769L20.1446 136.812C19.5714 136.321 18.9845 135.857 18.5068 135.272C19.5646 134.304 20.5745 133.282 21.5981 132.28C23.1403 133.054 24.3618 134.808 25.6789 135.904C27.6783 138.251 30.1486 140.221 32.2981 142.44C33.506 141.909 51.1255 124.125 53.6027 121.664L75.1051 100.545C80.4551 95.2534 85.7027 89.8207 91.2165 84.6906Z" fill="#7B2F05"/>
<path d="M32.3186 142.52C33.3081 143.428 36.488 146.239 37.0067 147.24L34.1269 150.044C33.0078 149.506 29.9643 146.474 29.0908 145.432C30.1417 144.45 31.2199 143.475 32.3186 142.52Z" fill="#581E02"/>
<path d="M85.6823 79.2646C87.518 81.08 89.34 82.9156 91.2166 84.6906C85.7028 89.8207 80.4551 95.2534 75.1051 100.545L53.6027 121.664C51.1256 124.125 33.506 141.902 32.2982 142.44C30.1486 140.221 27.6852 138.258 25.6789 135.904L25.7403 135.777C25.4401 135.447 25.1739 135.104 24.9078 134.748L24.6689 134.909L24.8941 134.613C25.3309 135.077 25.7198 135.494 26.3204 135.75C26.3545 135.763 26.3954 135.777 26.4364 135.797C26.7093 135.951 27.0028 136.301 27.2416 136.523C30.6058 133.699 33.6766 130.364 36.8293 127.305C42.6161 121.731 48.3823 116.117 54.1145 110.469C61.7983 103.039 69.4276 95.5492 76.9954 88.0053C79.8956 85.1075 82.8845 82.2634 85.6823 79.2646Z" fill="#A9470E"/>
<path d="M84.2354 142.715L85.996 142.675L85.8391 142.857C86.3031 143.011 86.774 143.139 87.1902 143.388C87.8453 144.988 88.0569 147.846 89.8448 148.578C90.1246 148.693 90.8274 148.894 91.0253 149.096C94.2735 149.284 97.59 149.157 100.845 149.157L119.891 149.13C136.535 149.143 153.212 149.358 169.856 149.069L176.721 149.056C180.433 149.036 183.907 148.612 186.759 151.416C188.301 152.935 189.202 155.053 189.325 157.198L65.5036 157.164L65.524 163.35C65.524 164.486 65.6264 165.75 65.4558 166.873C65.4285 166.739 65.408 166.604 65.408 166.463C65.3193 164.419 65.4012 162.355 65.4012 160.311C65.4012 158.435 65.1487 156.344 65.5855 154.509C65.6196 154.361 65.6605 154.213 65.7083 154.072C65.7561 153.924 65.8038 153.782 65.8584 153.641C65.913 153.5 65.9744 153.359 66.0358 153.224C66.0973 153.09 66.1655 152.955 66.2406 152.821C66.3156 152.686 66.3907 152.559 66.4726 152.431C66.5545 152.303 66.6432 152.176 66.7319 152.054C66.8206 151.933 66.9161 151.812 67.0185 151.698C67.114 151.584 67.2164 151.47 67.3256 151.362C68.2536 150.414 69.4615 149.775 70.7512 149.446C72.621 148.975 74.7501 149.143 76.6676 149.136L84.1945 149.123C84.1877 148.303 84.2082 147.489 84.2696 146.669C84.2423 145.351 84.2286 144.033 84.2354 142.715Z" fill="url(#paint2_linear_1072_45445)"/>
<path d="M84.2353 142.715L85.9958 142.675L85.8389 142.857C86.3029 143.011 86.7738 143.139 87.19 143.388C87.8451 144.988 88.0567 147.846 89.8446 148.578C90.1244 148.693 90.8272 148.894 91.0251 149.096C88.9984 149.358 86.4053 149.123 84.3035 149.136C84.3103 148.309 84.2967 147.496 84.2489 146.669C84.2421 145.351 84.2284 144.033 84.2353 142.715Z" fill="#235373"/>
<path d="M178.222 176.159C182.869 178.35 186.786 182.485 188.499 187.293C188.799 188.147 189.038 189.014 189.229 189.895C189.414 190.776 189.543 191.67 189.612 192.571C189.898 195.939 189.687 199.483 189.687 202.865C189.687 207.027 189.994 211.491 189.366 215.606C189.086 217.468 188.506 219.21 187.667 220.897C187.592 221.052 187.51 221.213 187.428 221.368C187.346 221.523 187.264 221.677 187.182 221.832C187.1 221.987 187.012 222.141 186.923 222.289C186.834 222.444 186.745 222.592 186.65 222.74C186.554 222.888 186.466 223.036 186.37 223.183C186.275 223.331 186.179 223.479 186.077 223.621C185.974 223.768 185.872 223.91 185.77 224.051C185.667 224.192 185.558 224.333 185.456 224.474C185.347 224.616 185.237 224.75 185.128 224.891C185.019 225.026 184.903 225.16 184.794 225.295C184.678 225.429 184.562 225.564 184.446 225.691C184.33 225.819 184.207 225.954 184.091 226.081C183.968 226.209 183.845 226.337 183.722 226.465C183.6 226.592 183.47 226.713 183.347 226.834C183.217 226.955 183.095 227.076 182.965 227.198C182.835 227.319 182.706 227.433 182.569 227.547C182.439 227.661 182.303 227.776 182.167 227.89C182.03 228.004 181.894 228.112 181.757 228.219C181.621 228.327 181.477 228.435 181.334 228.542C181.191 228.65 181.047 228.751 180.904 228.852C180.761 228.952 180.617 229.053 180.467 229.154C180.317 229.255 180.174 229.349 180.024 229.443C179.874 229.537 179.724 229.631 179.573 229.726C179.423 229.82 179.266 229.907 179.116 229.995C178.959 230.082 178.809 230.169 178.652 230.25C178.495 230.331 178.338 230.418 178.181 230.499C178.024 230.579 177.867 230.653 177.704 230.734C177.547 230.808 177.383 230.882 177.219 230.956C177.055 231.03 176.892 231.097 176.728 231.164C176.564 231.232 176.4 231.299 176.236 231.359C176.073 231.427 175.902 231.487 175.738 231.548C175.575 231.608 175.404 231.669 175.233 231.722C173.548 232.287 171.842 232.603 170.074 232.758C166.43 233.074 162.643 232.872 158.979 232.872L138.848 232.859L111.504 232.872C104.373 232.859 97.2282 232.778 90.0972 232.872C91.3187 232.489 92.663 232.328 93.9323 232.092C96.0272 231.709 98.1154 231.312 100.183 230.801C107.096 229.094 113.51 226.586 120.034 223.802C121.685 224.152 123.787 223.93 125.493 223.916L136.159 223.829L155.021 223.755C158.119 223.748 161.231 223.842 164.329 223.748C165.577 223.721 166.819 223.594 168.048 223.372C171.623 222.699 175.029 220.38 177.055 217.415C177.356 216.971 177.629 216.514 177.874 216.043C178.12 215.572 178.345 215.088 178.543 214.597C178.741 214.107 178.911 213.602 179.055 213.091C179.198 212.58 179.314 212.063 179.396 211.538C179.724 209.508 179.614 207.356 179.614 205.305L179.58 195.086L179.614 186.089C179.621 184.267 179.724 182.364 179.512 180.549C179.341 179.063 178.523 177.799 178.256 176.36C178.25 176.306 178.236 176.233 178.222 176.159Z" fill="#A9470E"/>
<path d="M65.5033 157.171L189.325 157.205L189.318 166.947L65.4487 166.88C65.6193 165.757 65.5238 164.493 65.517 163.357L65.5033 157.171Z" fill="url(#paint3_linear_1072_45445)"/>
<path d="M156.659 174.007L165.55 174.027C167.154 174.027 168.962 173.879 170.539 174.142C172.954 174.142 176.168 174.895 178.222 176.159C178.236 176.233 178.25 176.3 178.263 176.374C178.536 177.813 179.348 179.077 179.519 180.563C179.731 182.371 179.628 184.274 179.621 186.103L179.587 195.099L179.621 205.319C179.615 207.37 179.731 209.521 179.403 211.552C179.314 212.076 179.198 212.594 179.062 213.105C178.918 213.616 178.748 214.12 178.55 214.611C178.352 215.102 178.134 215.586 177.881 216.057C177.636 216.527 177.356 216.984 177.062 217.428C175.042 220.393 171.637 222.713 168.055 223.385C166.826 223.607 165.584 223.728 164.336 223.762C161.237 223.863 158.126 223.769 155.028 223.769L136.166 223.842L125.5 223.93C123.794 223.943 121.692 224.165 120.041 223.816C123.542 221.798 127.657 220.353 130.83 217.832C132.345 218.396 133.846 218.759 135.47 218.82C138.145 218.921 140.581 218.255 142.553 216.413C146.252 212.95 145.106 208.089 145.215 203.551C145.372 205.42 145.283 207.336 145.276 209.219C146.975 207.585 147.938 205.541 149.473 203.833L149.528 186.768L155.444 186.762C155.396 185 155.751 183.158 155.887 181.396C156.079 178.902 155.887 176.508 155.533 174.041L156.659 174.007Z" fill="#CE5E14"/>
<path d="M156.658 174.007L165.55 174.027C167.154 174.027 168.962 173.879 170.538 174.142C170.006 174.175 169.474 174.202 168.948 174.215C168.955 176.697 169.29 183.104 168.723 185.242C168.546 185.915 168.17 186.459 167.754 187.004C166.724 187.004 165.632 186.923 164.608 187.058C165.645 187.138 166.669 187.145 167.706 187.145L167.727 207.08C167.74 210.893 167.843 214.725 167.734 218.531H162.868C161.032 213.34 159.074 208.197 156.999 203.1C156.092 200.814 155.3 198.394 154.243 196.182C154.249 203.645 154.365 211.121 154.215 218.585L149.452 218.578L149.473 203.84L149.527 186.775L155.444 186.768C155.396 185.007 155.751 183.165 155.887 181.403C156.078 178.909 155.887 176.515 155.532 174.047L156.658 174.007Z" fill="#022745"/>
<path d="M156.659 174.007L165.55 174.027C167.154 174.027 168.962 173.879 170.539 174.142C170.006 174.175 169.474 174.202 168.949 174.215C168.955 176.697 169.29 183.104 168.723 185.242C168.546 185.915 168.171 186.459 167.754 187.004C166.724 187.004 165.632 186.923 164.608 187.058C164.015 187.098 163.394 187.044 162.8 187.037L162.814 205.89C159.995 199.678 158.051 193.075 155.444 186.768C155.396 185.007 155.751 183.165 155.887 181.403C156.078 178.909 155.887 176.515 155.533 174.047L156.659 174.007Z" fill="#DE761E"/>
<path d="M129.84 9.70886C130.345 9.52733 130.823 9.38613 131.355 9.28528C131.41 9.30545 131.464 9.33234 131.519 9.35251C132.338 9.66852 134.76 9.39286 135.777 9.41975C138.029 9.47354 140.397 9.80972 142.622 10.1459C156.058 12.1495 168.464 18.5571 176.708 29.3351C178.359 31.4934 179.86 33.7256 181.061 36.1595C181.327 36.6907 181.573 37.2353 181.819 37.7799C182.058 38.3246 182.29 38.8759 182.508 39.4272C182.726 39.9786 182.931 40.5366 183.129 41.1014C183.327 41.6662 183.511 42.231 183.682 42.7958C183.852 43.3605 184.016 43.9388 184.166 44.5103C184.316 45.0885 184.453 45.6667 184.576 46.245C184.698 46.8232 184.814 47.4081 184.917 47.9931C185.019 48.5781 185.108 49.163 185.19 49.7547C185.265 50.3464 185.333 50.9313 185.388 51.523C185.442 52.1147 185.483 52.7064 185.511 53.298C185.538 53.8897 185.558 54.4881 185.565 55.0798C185.572 55.6715 185.565 56.2699 185.545 56.8615C185.524 57.4532 185.497 58.0449 185.449 58.6433C185.408 59.235 185.354 59.8267 185.285 60.4183C185.217 61.01 185.142 61.595 185.046 62.1867C184.958 62.7716 184.855 63.3566 184.739 63.9415C184.425 65.6157 184.132 67.4714 183.538 69.0649C183.477 69.2263 183.416 69.3876 183.34 69.549C181.71 66.8259 179.615 65.0442 176.626 63.9079C174.933 63.0876 172.627 63.1011 170.825 63.5045C167.12 64.4189 164.609 67.5386 162.05 70.1541L147.467 56.8615C149.234 55.0798 151.8 53.1501 152.789 50.817C151.397 48.7327 148.995 46.9846 147.173 45.2432C144.935 43.0782 142.731 40.8862 140.574 38.6473L139.96 38.0623L139.667 37.827C141.114 37.5244 142.547 37.4841 144.021 37.4908C145.508 35.3662 148.64 31.8699 149.459 29.6511C150.128 27.8424 149.794 25.8052 148.988 24.0907C146.484 18.732 140.895 15.4172 135.873 12.6605C133.901 11.578 131.942 10.4821 129.84 9.70886Z" fill="#D0E8EB"/>
<path d="M139.946 38.0489C142.717 37.6253 145.412 38.4725 147.657 40.0727C149.691 41.525 151.445 43.2866 153.219 45.0213C155.812 47.5561 158.31 50.1514 160.821 52.7535C164.171 56.2161 167.863 59.6788 170.804 63.4843C167.099 64.3988 164.588 67.5185 162.029 70.134L147.446 56.8414C149.213 55.0597 151.779 53.13 152.769 50.7969C151.376 48.7126 148.974 46.9644 147.152 45.223C144.914 43.058 142.71 40.8661 140.554 38.6271L139.946 38.0489Z" fill="#FEFEFE"/>
<path d="M63.3269 39.3802C63.3201 39.0104 63.3201 38.6406 63.3269 38.264C63.3883 36.0049 63.8523 33.9071 65.0738 31.964C66.2817 30.0276 68.247 28.3602 69.8711 26.7532L76.2584 20.4398L87.5316 9.31217C89.2786 7.5842 90.9641 5.78228 92.7656 4.11482C95.6726 1.41865 99.1188 -0.100884 103.159 0.0066936C106.809 -0.0605425 110.624 0.746291 113.326 3.33488C113.436 3.44246 113.545 3.55004 113.654 3.66434C113.763 3.77864 113.865 3.89294 113.961 4.00724C114.063 4.12154 114.159 4.24257 114.254 4.36359C114.35 4.48462 114.439 4.61237 114.527 4.73339C114.616 4.86114 114.698 4.98889 114.78 5.11664C114.862 5.24439 114.937 5.37886 115.012 5.51333C115.087 5.6478 115.162 5.78228 115.23 5.92347C115.298 6.05794 115.367 6.19914 115.428 6.34034C115.49 6.48153 115.544 6.62273 115.599 6.76392C115.653 6.90512 115.701 7.05304 115.749 7.20096C115.797 7.34888 115.838 7.4968 115.878 7.64472C115.919 7.79264 115.954 7.94056 115.988 8.0952C116.022 8.24312 116.049 8.39776 116.07 8.54568C116.097 8.70032 116.117 8.84824 116.131 9.00289C116.151 9.15753 116.158 9.30545 116.172 9.46009C116.179 9.61473 116.186 9.76938 116.186 9.9173C116.186 10.0921 116.186 10.2669 116.179 10.4417C116.172 10.6166 116.158 10.7914 116.145 10.9662C116.131 11.141 116.111 11.3158 116.083 11.4906C116.056 11.6654 116.029 11.8403 116.001 12.0083C115.967 12.1832 115.933 12.3512 115.892 12.5193C115.851 12.6874 115.803 12.8622 115.756 13.0303C115.708 13.1984 115.653 13.3665 115.592 13.5279C115.537 13.696 115.469 13.8573 115.408 14.0187C115.339 14.1801 115.271 14.3414 115.196 14.5028C115.121 14.6642 115.046 14.8188 114.964 14.9735C114.882 15.1281 114.793 15.2827 114.705 15.4374C114.616 15.592 114.521 15.7399 114.425 15.8879C114.329 16.0358 114.227 16.177 114.125 16.3249C114.022 16.4661 113.913 16.6073 113.804 16.7418C113.695 16.8762 113.579 17.0107 113.463 17.1452C113.347 17.2797 113.224 17.4074 113.101 17.5284C112.139 18.4966 111.136 19.1085 109.955 19.7674C113.217 23.4385 117.298 26.3969 120.648 29.9806L117.305 33.2684C115.264 35.3931 113.074 37.4034 110.938 39.4407L97.6925 52.0811C96.6758 53.1165 95.5703 54.4411 94.2874 55.1336L83.9354 45.3575C83.5873 45.8147 83.2325 46.2651 82.8708 46.7156C81.2467 48.6991 79.1654 49.9497 76.5723 50.2186C73.4059 50.5414 70.0554 49.5059 67.6124 47.509C67.4622 47.3813 67.3121 47.2535 67.162 47.119C67.0187 46.9846 66.8754 46.8501 66.7321 46.7089C66.5956 46.5677 66.4591 46.4265 66.3226 46.2786C66.193 46.1307 66.0633 45.9827 65.9405 45.8281C65.8177 45.6735 65.6948 45.5188 65.5788 45.3575C65.4628 45.1961 65.3468 45.0347 65.2444 44.8734C65.1353 44.712 65.0329 44.5439 64.9305 44.3758C64.8282 44.2077 64.7326 44.0329 64.6439 43.8581C64.5552 43.6833 64.4665 43.5085 64.3846 43.3269C64.3027 43.1521 64.2208 42.9706 64.1526 42.789C64.0775 42.6075 64.0093 42.426 63.9411 42.2377C63.8728 42.0494 63.8182 41.8679 63.7636 41.6796C63.709 41.4914 63.6544 41.3031 63.6135 41.1149C63.5657 40.9266 63.5248 40.7316 63.4907 40.5433C63.4566 40.3484 63.4224 40.1601 63.3951 39.9651C63.3678 39.7701 63.3405 39.5751 63.3269 39.3802Z" fill="#0C978B"/>
<path d="M98.9069 5.43943C99.4733 5.41253 100.074 5.4327 100.613 5.62769C101.37 5.90336 102.066 6.50176 102.38 7.23463C102.694 7.95406 102.66 8.86847 102.326 9.57445C102.046 10.1661 101.473 10.7578 101.022 11.2419C98.7567 13.6758 96.2933 15.9753 93.9185 18.3151L84.9518 27.2508C83.2185 28.9452 81.4989 30.6597 79.8065 32.3944C78.4144 33.8198 77.0428 35.3393 75.5483 36.6639C74.941 37.2018 74.3268 37.4573 73.5694 37.7262C72.8324 37.7464 72.15 37.7128 71.4812 37.3699C70.3553 36.7849 70.0004 35.6553 69.6797 34.5392C69.8025 34.0081 69.9663 33.4231 70.2461 32.9457C71.2287 31.2783 73.2691 29.7049 74.668 28.3333L82.461 20.6617L92.39 10.8519C93.9322 9.33912 95.4608 7.6246 97.1326 6.25971C97.6854 5.81595 98.2108 5.61424 98.9069 5.43943Z" fill="#59C1A0"/>
<path d="M103.152 0.0066975C106.802 -0.0605386 110.617 0.746295 113.319 3.33488C113.428 3.44246 113.538 3.55004 113.647 3.66434C113.756 3.77864 113.858 3.89294 113.954 4.00725C114.056 4.12155 114.152 4.24257 114.247 4.3636C114.343 4.48462 114.432 4.61237 114.52 4.7334C114.609 4.86114 114.691 4.98889 114.773 5.11664C114.855 5.24439 114.93 5.37886 115.005 5.51333C115.08 5.64781 115.155 5.78228 115.223 5.92347C115.291 6.05795 115.36 6.19914 115.421 6.34034C115.482 6.48153 115.537 6.62273 115.592 6.76393C115.646 6.90512 115.694 7.05304 115.742 7.20096C115.79 7.34888 115.831 7.4968 115.871 7.64472C115.912 7.79264 115.947 7.94056 115.981 8.0952C116.015 8.24312 116.042 8.39776 116.063 8.54568C116.09 8.70033 116.11 8.84824 116.124 9.00289C116.144 9.15753 116.151 9.30545 116.165 9.46009C116.172 9.61474 116.179 9.76938 116.179 9.9173C116.179 10.0921 116.179 10.2669 116.172 10.4417C116.165 10.6166 116.151 10.7914 116.138 10.9662C116.124 11.141 116.103 11.3158 116.076 11.4906C116.049 11.6654 116.022 11.8403 115.994 12.0083C115.96 12.1832 115.926 12.3512 115.885 12.5193C115.844 12.6874 115.796 12.8622 115.749 13.0303C115.701 13.1984 115.646 13.3665 115.585 13.5279C115.53 13.696 115.462 13.8573 115.401 14.0187C115.332 14.1801 115.264 14.3414 115.189 14.5028C115.114 14.6642 115.039 14.8188 114.957 14.9735C114.875 15.1281 114.786 15.2827 114.698 15.4374C114.609 15.592 114.513 15.7399 114.418 15.8879C114.322 16.0358 114.22 16.177 114.118 16.3249C114.015 16.4661 113.906 16.6073 113.797 16.7418C113.688 16.8762 113.572 17.0107 113.456 17.1452C113.34 17.2797 113.217 17.4074 113.094 17.5284C112.132 18.4966 111.129 19.1085 109.948 19.7674L108.317 19.7405L95.6656 32.2868C94.1097 33.8265 90.5203 37.1278 89.4762 38.6742C87.6406 40.5971 85.0543 42.4932 83.4575 44.4565C83.5189 44.7523 83.6417 44.8935 83.8191 45.1221C83.9215 45.2499 83.8874 45.1894 83.942 45.3507C83.5939 45.8079 83.2391 46.2584 82.8774 46.7089C81.2533 48.6924 79.172 49.943 76.5789 50.2119C73.4125 50.5346 70.062 49.4992 67.619 47.5023C67.4688 47.3745 67.3187 47.2468 67.1686 47.1123C67.0253 46.9778 66.882 46.8434 66.7387 46.7022C66.6022 46.561 66.4657 46.4198 66.3292 46.2719C66.1996 46.1239 66.0699 45.976 65.9471 45.8214C65.8243 45.6667 65.7014 45.5121 65.5854 45.3507C65.4694 45.1894 65.3534 45.028 65.251 44.8666C65.1419 44.7053 65.0395 44.5372 64.9371 44.3691C64.8348 44.201 64.7392 44.0262 64.6505 43.8514C64.5618 43.6765 64.4731 43.5017 64.3912 43.3202C64.3093 43.1454 64.2274 42.9638 64.1592 42.7823C64.0841 42.6008 64.0159 42.4192 63.9477 42.231C63.8794 42.0427 63.8248 41.8612 63.7702 41.6729C63.7156 41.4846 63.661 41.2964 63.6201 41.1081C63.5723 40.9199 63.5314 40.7249 63.4973 40.5366C63.4632 40.3416 63.429 40.1534 63.4017 39.9584C63.3744 39.7634 63.354 39.5684 63.3335 39.3734C64.4936 40.3484 65.2715 41.6393 66.5476 42.5604C68.5539 44.006 70.8877 44.5775 73.3375 44.1741C74.7978 43.932 76.2854 43.3874 77.4592 42.4932C79.2539 41.135 80.8029 39.4003 82.3929 37.827L90.0767 30.2428L99.5553 20.9642C101.957 18.6176 104.707 16.2308 106.645 13.4875C108.14 11.3696 108.897 8.88186 108.386 6.31344C107.765 3.20041 105.649 1.66743 103.152 0.0066975Z" fill="#006967"/>
<path d="M108.317 19.7473L109.948 19.7741C113.21 23.4452 117.291 26.4036 120.641 29.9873L117.298 33.2752C115.257 35.3998 113.067 37.4102 110.931 39.4474L97.6855 52.0878C96.6688 53.1233 95.5633 54.4478 94.2804 55.1403L83.9352 45.3575C83.8806 45.2028 83.9147 45.2566 83.8124 45.1289C83.6349 44.9003 83.5121 44.7591 83.4507 44.4632C85.0543 42.5 87.6338 40.6039 89.4694 38.6809C90.5135 37.1345 94.1029 33.8332 95.6588 32.2935L108.317 19.7473Z" fill="#235373"/>
<path d="M89.4763 38.6809C89.9881 38.9095 90.3839 39.1179 90.5954 39.6626C90.7865 40.1534 90.7592 40.8325 90.7865 41.3569L88.671 43.5891C91.6395 46.4601 94.7307 49.2101 97.6924 52.0878C96.6756 53.1232 95.5701 54.4478 94.2872 55.1403L83.9352 45.3575C83.8806 45.2028 83.9147 45.2566 83.8124 45.1289C83.6349 44.9002 83.5121 44.7591 83.4507 44.4632C85.0543 42.4999 87.6406 40.6039 89.4763 38.6809Z" fill="#022745"/>
<path d="M108.317 19.7473L109.948 19.7741C113.21 23.4452 117.291 26.4036 120.641 29.9873L117.297 33.2752C115.585 31.7153 113.885 30.142 112.193 28.5485C110.767 27.197 109.361 25.7582 107.826 24.5277C101.991 29.9806 96.5594 35.8436 90.7726 41.3569C90.7453 40.8325 90.7726 40.1534 90.5815 39.6626C90.37 39.118 89.981 38.9095 89.4624 38.6809C90.5065 37.1345 94.0959 33.8332 95.6518 32.2935L108.317 19.7473Z" fill="url(#paint4_linear_1072_45445)"/>
<path d="M126.128 24.6622L134.33 32.6768C136.064 34.3913 137.756 36.2739 139.653 37.8136L139.946 38.0489L140.561 38.6339C142.724 40.8661 144.921 43.0648 147.159 45.2298C148.981 46.9645 151.383 48.7126 152.776 50.8036C151.779 53.1434 149.22 55.0664 147.453 56.8482C146.17 57.9643 144.948 59.1275 143.727 60.2974L125.398 78.0006C124.408 78.9419 122.129 80.7371 121.576 81.8734C121.46 82.0281 121.351 82.1693 121.221 82.3105C120.252 83.3526 117.762 86.19 116.356 86.2102C114.657 86.2371 112.166 83.0164 111.013 81.8398C108.611 79.4395 106.188 77.0593 103.738 74.6993C99.3709 70.571 95.14 66.2074 90.5953 62.2741C90.3837 62.0119 90.1039 61.8035 89.8514 61.5816C89.3669 61.1782 88.8756 60.7815 88.3843 60.3915C90.1585 58.7308 92.2467 56.3977 94.2939 55.1404C95.5768 54.4478 96.6823 53.1233 97.699 52.0878L110.944 39.4475C113.08 37.4102 115.271 35.3998 117.311 33.2752L120.655 29.9873C122.491 28.2459 124.422 26.5381 126.128 24.6622Z" fill="#F79D2B"/>
<path d="M137.947 41.283C138.936 40.5703 139.755 39.5348 140.561 38.6271C142.724 40.8594 144.921 43.058 147.159 45.223C148.981 46.9577 151.383 48.7058 152.776 50.7969C151.779 53.1367 149.22 55.0596 147.453 56.8414C146.17 57.9575 144.948 59.1207 143.727 60.2906L125.398 77.9939C124.408 78.9352 122.129 80.7304 121.576 81.8667C121.46 82.0213 121.351 82.1625 121.221 82.3037C120.252 83.3459 117.762 86.1832 116.356 86.2034C114.657 86.2303 112.166 83.0097 111.013 81.8331C108.611 79.4327 106.188 77.0526 103.738 74.6926C104.496 73.7177 105.69 72.4133 106.789 71.8351C107.689 72.931 108.986 73.9328 110.023 74.9145C111.92 76.7164 113.797 78.5519 115.639 80.4144C118.123 78.0006 120.505 75.486 123.002 73.0856C127.138 69.1658 131.225 65.2056 135.279 61.205C137.742 58.7912 143.584 53.4392 144.969 50.7364C144.976 50.0774 144.928 49.4185 144.901 48.7596C143.154 45.9357 139.68 43.8716 137.947 41.283Z" fill="#CE5E14"/>
<path d="M96.7983 62.2203C99.7531 59.746 102.483 56.996 105.26 54.3335C109.184 50.6086 113.074 46.8501 116.936 43.058C119.509 40.5366 122.02 37.6657 124.845 35.4267C125.78 34.6871 126.831 34.008 128.059 33.9273C131.068 33.7391 135.743 39.3869 137.858 41.2628C135.825 43.5757 133.395 45.6936 131.212 47.8721C125.521 53.5401 119.734 59.1005 113.954 64.6811C112.378 66.2007 107.758 70.2079 106.748 71.7544C103.465 68.5539 100.149 65.3737 96.7983 62.2203Z" fill="#FBC93C"/>
<path d="M147.453 56.8481L162.036 70.1407C164.595 67.5185 167.106 64.4055 170.811 63.4911C172.613 63.0877 174.913 63.0809 176.612 63.8945C179.607 65.0308 181.696 66.8193 183.327 69.5356C184.685 72.4671 185.538 75.5196 185.155 78.7738C185.06 79.5874 184.821 80.3606 184.698 81.1674C184.009 82.6601 183.231 84.0586 182.112 85.289C180.59 86.9632 178.775 88.4424 177.089 89.9619C174.421 92.3623 171.767 94.776 169.126 97.21L157.429 107.988C155.266 109.992 153.164 112.11 150.899 113.999C149.855 114.873 148.777 115.7 147.48 116.171C144 117.435 140.015 117.448 136.623 115.888C136.432 115.801 136.241 115.707 136.057 115.606C135.872 115.505 135.681 115.404 135.504 115.296C135.32 115.189 135.142 115.075 134.965 114.96C134.787 114.846 134.617 114.725 134.446 114.597C134.276 114.469 134.112 114.342 133.948 114.207C133.784 114.073 133.621 113.938 133.464 113.797C133.307 113.656 133.156 113.515 133.006 113.36C132.856 113.212 132.713 113.058 132.57 112.903C132.426 112.748 132.29 112.587 132.153 112.426C132.017 112.264 131.887 112.096 131.764 111.928C131.642 111.76 131.519 111.585 131.403 111.41C131.287 111.235 131.171 111.061 131.062 110.879C130.952 110.698 130.85 110.516 130.748 110.334C130.645 110.146 130.557 109.965 130.461 109.77C130.372 109.581 130.284 109.386 130.209 109.191C130.127 108.996 130.052 108.801 129.983 108.607C129.683 107.773 129.472 106.899 129.396 106.018C129.362 105.742 129.342 105.473 129.342 105.198C129.383 100.081 132.392 98.669 135.654 95.4215L135.825 95.2534C131.184 90.6881 126.312 86.3312 121.576 81.86C122.136 80.7304 124.408 78.9285 125.398 77.9872L143.727 60.2839C144.955 59.1274 146.177 57.9575 147.453 56.8481Z" fill="#0C978B"/>
<path d="M169.133 70.3088C169.665 70.2819 170.204 70.2348 170.723 70.3895C171.487 70.6181 172.142 71.1493 172.484 71.862C172.927 72.7898 172.791 73.8656 172.422 74.7934C172.04 75.7549 170.805 76.824 170.068 77.5501C165.428 82.1625 160.419 86.4522 155.656 90.9436C151.309 95.045 147.139 99.4355 142.629 103.349C141.953 103.934 141.318 104.371 140.506 104.754C139.756 104.882 138.971 104.794 138.282 104.458C138.2 104.418 138.125 104.377 138.05 104.33C137.975 104.283 137.9 104.236 137.831 104.182C137.763 104.129 137.695 104.075 137.633 104.014C137.572 103.954 137.511 103.893 137.449 103.826C137.395 103.759 137.34 103.692 137.292 103.618C137.244 103.544 137.197 103.47 137.156 103.396C137.115 103.322 137.074 103.241 137.04 103.16C137.006 103.08 136.978 102.999 136.951 102.918C136.685 102.031 136.944 101.15 137.374 100.357C138.159 98.911 141.148 96.383 142.444 95.1324L155.069 83.124L163.367 75.1162C164.684 73.8454 165.939 72.4805 167.331 71.2837C167.905 70.7996 168.396 70.524 169.133 70.3088Z" fill="#59C1A0"/>
<path d="M176.612 63.8945C179.607 65.0308 181.696 66.8192 183.327 69.5356C184.685 72.4671 185.538 75.5196 185.155 78.7738C185.06 79.5874 184.821 80.3606 184.698 81.1674C184.009 82.6601 183.231 84.0586 182.112 85.289C180.59 86.9632 178.775 88.4424 177.089 89.9619C174.421 92.3622 171.767 94.776 169.126 97.21L157.429 107.988C155.266 109.992 153.164 112.109 150.899 113.999C149.855 114.873 148.777 115.7 147.48 116.171C144 117.435 140.015 117.448 136.623 115.888C136.432 115.801 136.241 115.707 136.057 115.606C135.872 115.505 135.681 115.404 135.504 115.296C135.32 115.189 135.142 115.075 134.965 114.96C134.787 114.846 134.617 114.725 134.446 114.597C134.276 114.469 134.112 114.342 133.948 114.207C133.784 114.073 133.621 113.938 133.464 113.797C133.307 113.656 133.157 113.515 133.006 113.36C132.856 113.212 132.713 113.058 132.57 112.903C132.426 112.748 132.29 112.587 132.153 112.425C132.017 112.264 131.887 112.096 131.764 111.928C131.642 111.76 131.519 111.585 131.403 111.41C131.287 111.235 131.171 111.061 131.062 110.879C130.952 110.698 130.85 110.516 130.748 110.334C130.645 110.146 130.557 109.965 130.461 109.77C130.372 109.581 130.284 109.386 130.209 109.191C130.127 108.996 130.052 108.801 129.983 108.606C129.683 107.773 129.472 106.899 129.396 106.018L129.526 105.621C130.154 105.978 130.768 106.885 131.28 107.43C132.924 109.171 135.64 110.274 138.022 110.576C141.414 111 144.314 109.944 146.955 107.887C149.677 105.769 152.093 103.214 154.584 100.847L165.352 90.7956L172.797 83.877C174.428 82.371 176.271 80.8783 177.635 79.1369C178.905 77.5232 179.73 75.3918 179.962 73.3748C180.413 69.4885 178.98 66.8529 176.612 63.8945Z" fill="#006967"/>
<path d="M147.453 56.8481L162.036 70.1407C160.903 71.3577 159.736 72.5276 158.542 73.6908C154.249 77.9805 149.746 82.0348 145.303 86.1631C143.372 87.9583 141.516 89.8342 139.585 91.6361C138.329 92.8195 136.951 93.9692 135.818 95.2669C131.178 90.7015 126.305 86.3446 121.569 81.8734C122.129 80.7439 124.401 78.9419 125.391 78.0006L143.72 60.2974C144.955 59.1274 146.177 57.9575 147.453 56.8481Z" fill="#235373"/>
<path d="M143.727 60.2974C144.703 60.6739 145.774 62.2136 146.559 62.9666L128.059 80.6497C127.07 80.0312 126.19 78.8613 125.405 78.0006L143.727 60.2974Z" fill="#022745"/>
<path d="M147.453 56.8481L162.036 70.1407C160.903 71.3577 159.736 72.5276 158.542 73.6908C157.218 72.7831 155.99 71.4854 154.789 70.4164C152.011 67.9623 149.268 65.4813 146.552 62.9599C145.774 62.2069 144.696 60.6672 143.72 60.2906C144.955 59.1274 146.177 57.9575 147.453 56.8481Z" fill="#022745"/>
<path d="M121.576 81.8734C122.136 80.7438 124.408 78.9419 125.398 78.0006C126.182 78.8612 127.063 80.0311 128.052 80.6497L135.054 87.3666C136.555 88.7853 138.165 90.1435 139.585 91.6361C138.329 92.8195 136.951 93.9692 135.818 95.2668C131.178 90.7015 126.312 86.3379 121.576 81.8734Z" fill="#022745"/>
<path d="M10.0381 212.049L10.0449 198.831C10.0449 196.303 9.91528 193.694 10.1609 191.179C10.1882 190.877 10.2224 190.574 10.2633 190.265C10.3042 189.962 10.3588 189.66 10.4134 189.357C10.468 189.054 10.5363 188.759 10.6113 188.463C10.6864 188.167 10.7615 187.871 10.8502 187.575C10.9389 187.279 11.0344 186.99 11.1368 186.701C11.2391 186.412 11.3483 186.13 11.4643 185.841C11.5803 185.558 11.7032 185.276 11.8328 185C11.9625 184.724 12.099 184.449 12.2423 184.18C12.3856 183.911 12.5357 183.642 12.6926 183.38C12.8496 183.118 13.0134 182.855 13.184 182.6C13.3546 182.344 13.532 182.096 13.7162 181.847C13.9005 181.598 14.0916 181.356 14.2826 181.121C14.4805 180.885 14.6784 180.65 14.8831 180.421C15.0879 180.193 15.2994 179.971 15.5178 179.756C15.7361 179.541 15.9613 179.325 16.1865 179.124C16.4185 178.915 16.6506 178.714 16.8894 178.519C19.6258 176.293 22.7922 174.733 26.3338 174.289C29.3773 173.906 32.5027 174.02 35.5667 174.02H48.6551L91.5985 173.899L135.627 173.893L148.995 173.886C151.52 173.886 154.14 173.752 156.645 173.994L155.519 174.027C155.874 176.488 156.072 178.888 155.874 181.383C155.737 183.144 155.382 184.987 155.43 186.748L149.514 186.755L149.459 203.82C147.924 205.527 146.962 207.571 145.262 209.205C145.269 207.329 145.358 205.413 145.201 203.537C145.092 208.076 146.238 212.937 142.54 216.399C140.574 218.242 138.131 218.907 135.456 218.806C133.832 218.746 132.331 218.383 130.816 217.818C127.643 220.339 123.528 221.785 120.027 223.802C113.504 226.586 107.089 229.087 100.176 230.801C98.1086 231.312 96.0205 231.709 93.9255 232.092C92.6631 232.328 91.3187 232.482 90.0904 232.872C88.903 233.128 86.8354 232.879 85.5729 232.872L75.5553 232.832L33.2124 232.839C26.1154 232.825 20.9497 232.287 15.6679 227.016C11.4916 222.841 9.98352 217.805 10.0381 212.049Z" fill="#FAC88D"/>
<path d="M115.599 187.037L121.385 187.024C121.256 191.273 121.14 196.713 121.44 200.928C119.638 201.527 117.482 202.448 115.612 202.697L115.599 187.037Z" fill="#235373"/>
<path d="M126.142 199.678C126.101 197.009 125.971 194.212 127.015 191.697C127.841 189.72 129.369 188.086 131.389 187.259C133.982 186.19 137.742 186.311 140.329 187.367C142.601 188.288 143.87 189.787 144.798 191.986L144.805 192.073C143.079 193.129 141.257 194.339 139.353 195.039L139.285 195.112C137.169 195.966 134.153 197.546 132.017 197.957L131.983 198.024C130.024 198.555 128.12 199.214 126.142 199.678Z" fill="#235373"/>
<path d="M132.01 197.963C131.997 196.471 131.778 194.528 132.604 193.216C133.095 192.436 133.887 191.973 134.794 191.818C135.879 191.63 137.21 191.778 138.111 192.45C139.046 193.149 139.21 193.949 139.346 195.045L139.278 195.119C137.169 195.98 134.153 197.56 132.01 197.963Z" fill="#FAC88D"/>
<path d="M148.64 174.014C150.933 174.074 153.24 174.041 155.532 174.041C155.887 176.502 156.085 178.902 155.887 181.396C155.751 183.158 155.396 185 155.444 186.762L149.527 186.768L149.473 203.833C147.937 205.541 146.975 207.585 145.276 209.219C145.283 207.343 145.372 205.426 145.215 203.551C145.133 200.115 145.638 195.281 144.812 192.08L144.805 191.993C148.047 188.355 148.668 178.821 148.64 174.014Z" fill="#F79D2B"/>
<path d="M93.4751 187.078L112.35 187.091C112.378 188.826 112.35 190.561 112.343 192.289L106.14 192.282L106.168 206.455L106.134 206.549C104.23 206.912 102.019 208.015 100.156 208.694C100.326 203.241 100.21 197.748 100.238 192.289H93.4751V187.078Z" fill="#235373"/>
<path d="M81.5397 186.56C81.5875 186.553 81.6421 186.553 81.6898 186.547C84.1533 186.439 86.8283 187.051 88.6571 188.765C91.2025 191.159 91.3867 194.01 91.4686 197.271L85.2042 197.291C85.2315 195.637 85.5113 193.6 84.2215 192.322C83.621 191.724 82.9181 191.414 82.0583 191.421C81.178 191.428 80.2704 191.744 79.6699 192.396C79.2468 192.847 79.0762 193.311 78.967 193.909C78.4962 196.491 78.7623 199.429 78.7623 202.058C78.7623 204.754 78.6259 207.538 78.8101 210.227C78.8783 211.263 79.0148 212.365 79.8883 213.064C80.6662 213.69 81.956 213.824 82.9181 213.676C86.4598 213.132 84.4126 207.995 85.3816 206.67L85.9685 206.643L90.9636 206.623C90.9841 209.797 90.9773 213.091 88.9233 215.74C87.5858 217.462 85.5454 218.538 83.3754 218.793C80.7754 219.102 77.7387 218.551 75.6642 216.91C73.8013 215.438 72.88 213.239 72.6753 210.94C72.4433 208.304 72.6139 205.541 72.6207 202.885C72.6207 200.054 72.3 196.128 72.8664 193.432C73.1735 191.966 73.8149 190.587 74.8044 189.451C76.565 187.427 78.9398 186.775 81.5397 186.56Z" fill="#235373"/>
<path d="M62.9648 187.031L68.8948 187.024L68.888 202.609C68.888 205.81 69.2292 209.42 68.5605 212.547C68.5195 212.735 68.4786 212.917 68.424 213.098C68.3694 213.28 68.3148 213.461 68.2534 213.643C68.192 213.824 68.1169 213.999 68.0418 214.174C67.9668 214.349 67.8849 214.517 67.7962 214.685C67.7075 214.853 67.6119 215.021 67.5096 215.182C67.4072 215.344 67.3048 215.505 67.1888 215.66C67.0797 215.814 66.9568 215.962 66.8408 216.11C66.718 216.258 66.5883 216.399 66.4587 216.534C64.7459 218.322 62.2824 219.015 59.8462 219.062C57.2599 219.116 54.5849 218.625 52.6878 216.763C51.637 215.734 50.9477 214.416 50.5792 213.011C49.7945 209.999 50.1766 201.796 50.1834 198.266L50.1766 187.192L56.3114 187.199L56.2841 202.945C56.2841 205.48 56.0384 208.264 56.366 210.772C56.4615 211.532 56.5844 212.318 57.1303 212.91C57.7513 213.576 58.7271 213.871 59.6279 213.878C60.5423 213.885 61.4635 213.629 62.105 212.957C62.6577 212.385 62.8215 211.733 62.9307 210.973C63.2787 208.486 63.0194 205.689 63.0126 203.167L62.9648 187.031Z" fill="#235373"/>
<path d="M139.353 195.045C141.263 194.346 143.079 193.136 144.805 192.08C145.631 195.281 145.133 200.122 145.208 203.551C145.099 208.089 146.245 212.95 142.546 216.413C140.581 218.255 138.138 218.921 135.463 218.82C133.839 218.759 132.338 218.396 130.823 217.832C130.024 217.408 129.267 216.904 128.619 216.272C125.712 213.428 126.087 209.824 126.107 206.119C126.121 203.994 126.121 201.863 126.107 199.738L126.135 199.678C128.114 199.214 130.011 198.548 131.969 198.031L132.003 197.963C134.139 197.553 137.155 195.973 139.271 195.119L139.353 195.045Z" fill="#022745"/>
<path d="M132.01 197.963C134.146 197.553 137.162 195.973 139.278 195.119L139.264 205.077C139.264 206.805 139.407 208.667 139.169 210.375C139.059 211.155 138.875 211.975 138.288 212.54C137.551 213.253 136.432 213.562 135.422 213.535C134.467 213.508 133.518 213.152 132.877 212.446C132.406 211.928 132.208 211.323 132.085 210.651C131.86 209.36 131.969 207.955 131.969 206.643C131.976 203.779 132.065 200.888 131.976 198.024L132.01 197.963Z" fill="#F79D2B"/>
<path d="M38.5763 187.232L40.0435 187.179C42.5479 197.607 45.2706 208.008 47.5908 218.477C45.4139 218.538 43.2234 218.524 41.0466 218.538C40.7941 216.527 40.3642 214.51 40.023 212.513L34.6593 212.459L32.6394 212.446C32.305 214.483 31.8751 216.5 31.5612 218.538C29.6437 218.531 27.7261 218.564 25.8086 218.578C27.8899 208.089 30.9402 197.768 32.8578 187.253C34.7685 187.273 36.6724 187.266 38.5763 187.232Z" fill="#235373"/>
<path d="M36.3857 192.753C36.8566 194.077 36.9658 195.818 37.2182 197.217L39.129 207.659L36.5631 207.665H33.5811C34.7411 202.764 35.3689 197.694 36.3857 192.753Z" fill="#FAC88D"/>
<path d="M121.44 200.935C123.023 200.639 124.538 200.088 126.114 199.745C126.128 201.87 126.128 204.001 126.114 206.126C126.094 209.837 125.718 213.441 128.625 216.278C129.274 216.91 130.031 217.415 130.83 217.838C127.656 220.36 123.542 221.805 120.041 223.822C113.517 226.606 107.103 229.107 100.19 230.822C98.1222 231.333 96.034 231.729 93.9391 232.112C92.6766 232.348 91.3323 232.502 90.104 232.892C88.9166 233.148 86.8489 232.899 85.5865 232.892L75.5689 232.852L33.226 232.859C26.129 232.845 20.9632 232.307 15.6815 227.036C11.4915 222.847 9.97661 217.805 10.0312 212.056C12.2422 213.468 14.3986 214.961 16.7187 216.198C26.7091 221.516 37.8322 223.358 49.0713 223.607C55.0969 223.762 61.1157 223.647 67.1276 223.278C73.6718 222.861 94.1506 220.857 98.7909 216.265C99.2891 215.774 99.6439 215.169 99.603 214.456C99.5689 213.824 99.2618 213.286 98.7636 212.89C96.8256 211.35 93.3317 211.565 91.0116 211.794C94.1574 211 97.1259 209.871 100.142 208.708C102.005 208.028 104.216 206.926 106.12 206.563L106.154 206.469C106.168 206.462 106.181 206.462 106.195 206.455C109.32 205.628 112.459 203.853 115.571 202.791L115.598 202.717C117.489 202.448 119.638 201.533 121.44 200.935Z" fill="#F79D2B"/>
<path d="M100.156 208.694C102.019 208.015 104.23 206.912 106.134 206.549L106.14 218.679L100.122 218.685L100.156 208.694Z" fill="#022745"/>
<path d="M121.44 200.935C121.474 206.852 121.474 212.775 121.447 218.692L115.605 218.685L115.592 202.771L115.619 202.697C117.489 202.448 119.638 201.533 121.44 200.935Z" fill="#022745"/>
</g>
<defs>
<linearGradient id="paint0_linear_1072_45445" x1="162.021" y1="125.065" x2="106.97" y2="152.874" gradientUnits="userSpaceOnUse">
<stop stop-color="#1A3B61"/>
<stop offset="1" stop-color="#486D8A"/>
</linearGradient>
<linearGradient id="paint1_linear_1072_45445" x1="164.478" y1="130.786" x2="94.0011" y2="160.758" gradientUnits="userSpaceOnUse">
<stop stop-color="#001D3F"/>
<stop offset="1" stop-color="#214C76"/>
</linearGradient>
<linearGradient id="paint2_linear_1072_45445" x1="180.137" y1="133.402" x2="72.9836" y2="175.552" gradientUnits="userSpaceOnUse">
<stop stop-color="#234468"/>
<stop offset="1" stop-color="#6B8AA3"/>
</linearGradient>
<linearGradient id="paint3_linear_1072_45445" x1="183.817" y1="142.785" x2="71.2438" y2="182.401" gradientUnits="userSpaceOnUse">
<stop stop-color="#001E43"/>
<stop offset="1" stop-color="#2C5478"/>
</linearGradient>
<linearGradient id="paint4_linear_1072_45445" x1="118.619" y1="35.4512" x2="92.5988" y2="28.277" gradientUnits="userSpaceOnUse">
<stop stop-color="#012340"/>
<stop offset="1" stop-color="#013B5D"/>
</linearGradient>
<clipPath id="clip0_1072_45445">
<rect width="192" height="233" fill="white"/>
</clipPath>
</defs>
</svg>
