<svg width="20" height="20" viewBox="0 0 20 20" fill="none" xmlns="http://www.w3.org/2000/svg">
<path d="M13.667 5.5H14.167H16.667C16.9764 5.5 17.2732 5.62292 17.492 5.84171C17.7107 6.0605 17.8337 6.35725 17.8337 6.66667V15.8333C17.8337 16.1428 17.7107 16.4395 17.492 16.6583C17.2732 16.8771 16.9764 17 16.667 17H3.33366C3.02424 17 2.72749 16.8771 2.5087 16.6583L2.15515 17.0118L2.5087 16.6583C2.28991 16.4395 2.16699 16.1428 2.16699 15.8333V6.66667C2.16699 6.35725 2.28991 6.0605 2.5087 5.84171C2.72749 5.62292 3.02424 5.5 3.33366 5.5H5.83366H6.33366V5C6.33366 4.46957 6.54437 3.96086 6.91945 3.58579C7.29452 3.21071 7.80323 3 8.33366 3H11.667C12.1974 3 12.7061 3.21071 13.0812 3.58579C13.4563 3.96086 13.667 4.46957 13.667 5V5.5ZM9.66699 10V9.5H9.16699H3.33366H2.83366V10V15.8333V16.3333H3.33366H16.667H17.167V15.8333V10V9.5H16.667H10.8337H10.3337V10V10.8328C10.3336 10.9177 10.301 10.9995 10.2427 11.0612C10.1844 11.123 10.1047 11.1602 10.0199 11.1652C9.93505 11.1701 9.85153 11.1426 9.78638 11.088C9.72414 11.0359 9.68315 10.963 9.67086 10.883L9.66699 10.8184V10ZM17.167 6.66667V6.16667H16.667H3.33366H2.83366V6.66667V8.33333V8.83333H3.33366H16.667H17.167V8.33333V6.66667ZM11.6969 3.66756L11.6819 3.66667H11.667H8.33366H8.33359C8.00702 3.66671 7.69181 3.78661 7.44776 4.00362C7.20372 4.22063 7.0478 4.51967 7.00959 4.844L7.00791 4.85828L7.00705 4.87264L7.00122 4.97014L6.96952 5.5H7.50033H12.5003H13.0004L13.0003 4.99993C13.0003 4.67336 12.8804 4.35815 12.6634 4.1141C12.4464 3.87006 12.1473 3.71414 11.823 3.67593L11.8087 3.67425L11.7944 3.67339L11.6969 3.66756Z" fill="#364B63" stroke="#364B63"/>
</svg>
