<svg width="20" height="20" viewBox="0 0 20 20" fill="none" xmlns="http://www.w3.org/2000/svg">
<path d="M13.6665 5.5H14.1665H16.6665C16.9759 5.5 17.2727 5.62292 17.4915 5.84171C17.7103 6.0605 17.8332 6.35725 17.8332 6.66667V15.8333C17.8332 16.1428 17.7103 16.4395 17.4915 16.6583C17.2727 16.8771 16.9759 17 16.6665 17H3.33317C3.02375 17 2.72701 16.8771 2.50821 16.6583L2.15466 17.0118L2.50821 16.6583C2.28942 16.4395 2.1665 16.1428 2.1665 15.8333V6.66667C2.1665 6.35725 2.28942 6.0605 2.50821 5.84171C2.727 5.62292 3.02375 5.5 3.33317 5.5H5.83317H6.33317V5C6.33317 4.46957 6.54388 3.96086 6.91896 3.58579C7.29403 3.21071 7.80274 3 8.33317 3H11.6665C12.1969 3 12.7056 3.21071 13.0807 3.58579C13.4558 3.96086 13.6665 4.46957 13.6665 5V5.5ZM9.6665 10V9.5H9.1665H3.33317H2.83317V10V15.8333V16.3333H3.33317H16.6665H17.1665V15.8333V10V9.5H16.6665H10.8332H10.3332V10V10.8328C10.3331 10.9177 10.3005 10.9995 10.2422 11.0612C10.1839 11.123 10.1042 11.1602 10.0194 11.1652C9.93456 11.1701 9.85104 11.1426 9.78589 11.088C9.72365 11.0359 9.68266 10.963 9.67037 10.883L9.6665 10.8184V10ZM17.1665 6.66667V6.16667H16.6665H3.33317H2.83317V6.66667V8.33333V8.83333H3.33317H16.6665H17.1665V8.33333V6.66667ZM11.6964 3.66756L11.6814 3.66667H11.6665H8.33317H8.33311C8.00653 3.66671 7.69132 3.78661 7.44728 4.00362C7.20323 4.22063 7.04731 4.51967 7.00911 4.844L7.00742 4.85828L7.00656 4.87264L7.00073 4.97014L6.96903 5.5H7.49984H12.4998H12.9999L12.9998 4.99993C12.9998 4.67336 12.8799 4.35815 12.6629 4.1141C12.4459 3.87006 12.1468 3.71414 11.8225 3.67593L11.8082 3.67425L11.7939 3.67339L11.6964 3.66756Z" fill="#364B63" stroke="#364B63"/>
</svg>
