<svg width="20" height="20" viewBox="0 0 20 20" fill="none" xmlns="http://www.w3.org/2000/svg">
<path fill-rule="evenodd" clip-rule="evenodd" d="M13.3333 12.5C14.4217 12.5 15.3483 13.1958 15.6917 14.1667H16.6667C16.8877 14.1667 17.0996 14.2545 17.2559 14.4107C17.4122 14.567 17.5 14.779 17.5 15C17.5 15.221 17.4122 15.433 17.2559 15.5893C17.0996 15.7455 16.8877 15.8333 16.6667 15.8333H15.6917C15.5195 16.3213 15.2002 16.7438 14.7778 17.0427C14.3554 17.3415 13.8508 17.502 13.3333 17.502C12.8159 17.502 12.3112 17.3415 11.8888 17.0427C11.4664 16.7438 11.1472 16.3213 10.975 15.8333H3.33333C3.11232 15.8333 2.90036 15.7455 2.74408 15.5893C2.5878 15.433 2.5 15.221 2.5 15C2.5 14.779 2.5878 14.567 2.74408 14.4107C2.90036 14.2545 3.11232 14.1667 3.33333 14.1667H10.975C11.1475 13.6791 11.4669 13.257 11.8893 12.9585C12.3116 12.66 12.8162 12.4999 13.3333 12.5ZM13.3333 14.1667C13.1123 14.1667 12.9004 14.2545 12.7441 14.4107C12.5878 14.567 12.5 14.779 12.5 15C12.5 15.221 12.5878 15.433 12.7441 15.5893C12.9004 15.7455 13.1123 15.8333 13.3333 15.8333C13.5543 15.8333 13.7663 15.7455 13.9226 15.5893C14.0789 15.433 14.1667 15.221 14.1667 15C14.1667 14.779 14.0789 14.567 13.9226 14.4107C13.7663 14.2545 13.5543 14.1667 13.3333 14.1667ZM6.66667 7.5C7.15749 7.49993 7.63748 7.64435 8.04678 7.91524C8.45608 8.18613 8.77658 8.57151 8.96833 9.02333L9.02417 9.16667H16.6667C16.8791 9.1669 17.0834 9.24823 17.2378 9.39404C17.3923 9.53985 17.4852 9.73913 17.4976 9.95116C17.5101 10.1632 17.4411 10.372 17.3048 10.5349C17.1685 10.6977 16.9751 10.8024 16.7642 10.8275L16.6667 10.8333H9.025C8.857 11.3086 8.54931 11.722 8.14228 12.0193C7.73524 12.3166 7.24786 12.484 6.74404 12.4995C6.24022 12.515 5.74348 12.3779 5.31894 12.1061C4.8944 11.8344 4.56189 11.4407 4.365 10.9767L4.30833 10.8333H3.33333C3.12093 10.8331 2.91664 10.7518 2.76219 10.606C2.60775 10.4602 2.5148 10.2609 2.50236 10.0488C2.48991 9.8368 2.5589 9.62802 2.69522 9.46514C2.83155 9.30226 3.02492 9.19759 3.23583 9.1725L3.33333 9.16667H4.30833C4.48084 8.6791 4.80027 8.25702 5.22262 7.95853C5.64498 7.66005 6.14949 7.49985 6.66667 7.5ZM6.66667 9.16667C6.44565 9.16667 6.23369 9.25446 6.07741 9.41074C5.92113 9.56703 5.83333 9.77899 5.83333 10C5.83333 10.221 5.92113 10.433 6.07741 10.5893C6.23369 10.7455 6.44565 10.8333 6.66667 10.8333C6.88768 10.8333 7.09964 10.7455 7.25592 10.5893C7.4122 10.433 7.5 10.221 7.5 10C7.5 9.77899 7.4122 9.56703 7.25592 9.41074C7.09964 9.25446 6.88768 9.16667 6.66667 9.16667ZM13.3333 2.5C14.4217 2.5 15.3483 3.19583 15.6917 4.16667H16.6667C16.8877 4.16667 17.0996 4.25446 17.2559 4.41074C17.4122 4.56703 17.5 4.77899 17.5 5C17.5 5.22101 17.4122 5.43298 17.2559 5.58926C17.0996 5.74554 16.8877 5.83333 16.6667 5.83333H15.6917C15.5195 6.32128 15.2002 6.74381 14.7778 7.04268C14.3554 7.34155 13.8508 7.50204 13.3333 7.50204C12.8159 7.50204 12.3112 7.34155 11.8888 7.04268C11.4664 6.74381 11.1472 6.32128 10.975 5.83333H3.33333C3.11232 5.83333 2.90036 5.74554 2.74408 5.58926C2.5878 5.43298 2.5 5.22101 2.5 5C2.5 4.77899 2.5878 4.56703 2.74408 4.41074C2.90036 4.25446 3.11232 4.16667 3.33333 4.16667H10.975C11.1475 3.6791 11.4669 3.25702 11.8893 2.95853C12.3116 2.66005 12.8162 2.49985 13.3333 2.5ZM13.3333 4.16667C13.1123 4.16667 12.9004 4.25446 12.7441 4.41074C12.5878 4.56703 12.5 4.77899 12.5 5C12.5 5.22101 12.5878 5.43298 12.7441 5.58926C12.9004 5.74554 13.1123 5.83333 13.3333 5.83333C13.5543 5.83333 13.7663 5.74554 13.9226 5.58926C14.0789 5.43298 14.1667 5.22101 14.1667 5C14.1667 4.77899 14.0789 4.56703 13.9226 4.41074C13.7663 4.25446 13.5543 4.16667 13.3333 4.16667Z" fill="#0C8CE9"/>
</svg>
