<svg width="290" height="46" viewBox="0 0 290 46" fill="none" xmlns="http://www.w3.org/2000/svg">
<g style="mix-blend-mode:multiply" opacity="0.72">
<path d="M1.05213 41.3659C0.949461 43.1659 10.0365 45.1518 21.3424 45.7944C32.6622 46.4446 41.9055 45.5008 41.9959 43.7023C42.1062 41.8916 33.0315 39.8979 21.7117 39.2569C10.4089 38.6037 1.15327 39.5536 1.05213 41.3659Z" fill="url(#paint0_radial_1072_46710)"/>
</g>
<path fill-rule="evenodd" clip-rule="evenodd" d="M7.07195 27.8466C8.65491 30.4198 10.9933 32.684 13.3655 34.982C12.8153 32.9191 12.0139 30.6104 11.9618 28.5383C11.3764 24.4203 11.8055 20.7958 12.8015 17.162L12.5334 16.9022C5.14881 21.944 0.648199 29.2546 0 36.7481C0.711026 32.87 2.98508 29.456 7.07195 27.8466Z" fill="#E89818"/>
<path fill-rule="evenodd" clip-rule="evenodd" d="M20.4014 39.2153C27.4212 42.4572 34.8763 42.5771 40.7376 40.1684C37.4323 41.0046 34.0656 40.2852 30.6653 38.0087C31.9218 36.1949 32.9118 34.1228 33.4006 32.02C32.377 33.0837 31.1051 33.8707 29.8286 34.69C27.0596 37.0603 23.7236 38.3961 20.4014 39.2153Z" fill="#7AAE25"/>
<path fill-rule="evenodd" clip-rule="evenodd" d="M34.4872 20.7206C33.8099 11.4271 29.0457 3.74907 22.5484 0C26.1955 2.52397 28.5599 6.34529 28.16 11.527C25.0508 11.5823 21.9845 12.1664 18.9136 13.2332C21.4803 13.702 24.0716 14.1877 26.4269 15.4221C29.2725 16.6487 32.135 18.4395 34.4872 20.7206Z" fill="#3976CF"/>
<g clip-path="url(#clip0_1072_46710)">
<path fill-rule="evenodd" clip-rule="evenodd" d="M25.2962 20.4361C26.2598 20.8674 27.0647 21.5106 27.6782 22.2846C31.465 21.9088 30.9833 21.5151 32.9544 24.2317L28.5792 24.6654C27.2981 24.7928 26.0164 24.9815 24.7375 25.0965C24.3179 25.1335 23.64 25.1962 23.2428 25.0185C22.8442 24.84 22.4391 24.2942 22.1893 23.956C21.4236 22.9258 20.711 21.8445 19.953 20.8044L17.3655 17.2526L20.2821 17.0799C22.2989 16.5511 24.5083 16.6827 26.5656 17.6035C27.9697 18.232 29.145 19.1576 30.0529 20.2714L28.3784 20.4374C27.7102 19.7854 26.9179 19.2377 26.0159 18.834C24.4271 18.1229 22.7342 17.9627 21.1511 18.2695L22.3336 19.8908C23.3166 19.833 24.3326 20.0048 25.2962 20.4361Z" fill="#F29B12"/>
<path fill-rule="evenodd" clip-rule="evenodd" d="M26.4888 17.7757C24.5448 16.9056 22.3859 16.725 20.3318 17.2621L20.3129 17.2669L17.72 17.4214L20.1051 20.6945C20.8664 21.7344 21.5747 22.8104 22.3426 23.8433C22.5718 24.1523 22.9655 24.6864 23.3207 24.8454L25.2201 20.6069C24.3152 20.2019 23.3322 20.0199 22.3439 20.0786L22.2401 20.0854L20.8228 18.141L21.1134 18.0846C22.7957 17.759 24.5248 17.962 26.0926 18.6637L26.4902 17.7763L26.4888 17.7757Z" fill="#F1AF10"/>
<path fill-rule="evenodd" clip-rule="evenodd" d="M16.4554 26.7794C16.3438 25.7357 16.4975 24.7258 16.8625 23.8139C14.6216 20.7401 14.5228 21.3501 15.8936 18.3099L18.4817 21.8603C19.2397 22.9004 20.0532 23.9103 20.7976 24.9543C21.0421 25.2968 21.4379 25.8485 21.4845 26.2805C21.5302 26.7104 21.2593 27.3299 21.0913 27.7124C20.5812 28.8807 19.999 30.03 19.4758 31.1974L17.6902 35.1822L16.0653 32.757C14.5853 31.2823 13.5842 29.3161 13.3464 27.089C13.1863 25.5692 13.3983 24.0994 13.9098 22.7669L14.9009 24.126C14.6701 25.0232 14.5933 25.9776 14.6978 26.9548C14.8814 28.6733 15.5958 30.2115 16.663 31.4232L17.4794 29.6014C16.9301 28.7813 16.567 27.8231 16.4554 26.7794Z" fill="#E03136"/>
<path fill-rule="evenodd" clip-rule="evenodd" d="M13.5363 27.0691C13.7602 29.1735 14.6941 31.1212 16.2006 32.6228L16.2135 32.6352L17.6569 34.791L19.3027 31.1183C19.8258 29.9508 20.4049 28.8085 20.9169 27.636C21.0707 27.2854 21.3361 26.6818 21.2952 26.2972L16.6447 26.7609C16.7498 27.7401 17.0873 28.6768 17.6374 29.499L17.6961 29.5852L16.7182 31.7675L16.5224 31.545C15.3874 30.2597 14.6898 28.669 14.5099 26.9722L13.5363 27.0691Z" fill="#E7595B"/>
<path fill-rule="evenodd" clip-rule="evenodd" d="M26.4494 31.2525C25.5959 31.8643 24.6388 32.2315 23.6609 32.3681C22.1145 35.819 22.6956 35.6014 19.3544 35.927L21.1401 31.9422C21.6632 30.7748 22.1329 29.5768 22.666 28.4172C22.841 28.0378 23.1217 27.4227 23.4731 27.1705C23.8246 26.9183 24.502 26.8453 24.9205 26.7996C26.1969 26.6601 27.4911 26.5935 28.7722 26.4662L33.146 26.0318L31.8536 28.6311C31.3168 30.6346 30.1085 32.4692 28.289 33.7754C27.0471 34.6661 25.6591 35.2117 24.2403 35.4289L24.9244 33.9024C25.822 33.6566 26.6924 33.2506 27.4914 32.6777C28.8966 31.6703 29.8751 30.2923 30.3904 28.7751L28.3927 28.9729C27.9543 29.8537 27.3028 30.6407 26.4494 31.2525Z" fill="#1D656D"/>
<path fill-rule="evenodd" clip-rule="evenodd" d="M28.1771 33.6224C29.8972 32.3882 31.1222 30.6211 31.6704 28.581L31.6751 28.5631L32.8245 26.2528L28.7916 26.6532C27.5105 26.7806 26.2218 26.8463 24.9419 26.9859C24.5589 27.0275 23.8998 27.0971 23.5855 27.3226L26.3381 31.0981C27.1391 30.5245 27.7832 29.7691 28.2216 28.8883L28.268 28.7959L30.6632 28.5579L30.5691 28.8354C30.0212 30.4478 28.9883 31.8348 27.6018 32.8306L28.1771 33.6224Z" fill="#237780"/>
</g>
<path d="M58.1313 24.7585C58.1313 24.9797 58.1275 25.2809 58.1199 25.6623C58.1123 26.036 58.1085 26.3067 58.1085 26.4745C58.1085 27.3973 58.1275 28.1028 58.1657 28.5909C58.2114 29.0714 58.2762 29.3688 58.3601 29.4832C58.4135 29.5595 58.669 29.7158 59.1266 29.9522C59.5918 30.181 59.8245 30.4976 59.8245 30.9018C59.8245 31.3517 59.5613 31.6682 59.0351 31.8513C58.5089 32.0267 57.5136 32.1144 56.0493 32.1144C54.5392 32.1144 53.5248 32.0267 53.0062 31.8513C52.4876 31.6759 52.2283 31.3594 52.2283 30.9018C52.2283 30.4976 52.4571 30.181 52.9147 29.9522C53.3723 29.7158 53.6278 29.5633 53.6812 29.4946C53.7956 29.3345 53.8833 28.6748 53.9443 27.5155C54.0053 26.3487 54.0358 24.7814 54.0358 22.8137C54.0358 21.2579 54.0053 20.0109 53.9443 19.0728C53.8833 18.1348 53.7956 17.5856 53.6812 17.4255C53.6278 17.3492 53.3723 17.1967 52.9147 16.9679C52.4571 16.7391 52.2283 16.4226 52.2283 16.0184C52.2283 15.6523 52.3885 15.3739 52.7088 15.1832C53.0291 14.9926 53.502 14.8972 54.1274 14.8972C54.5316 14.8972 55.0159 14.9049 55.5802 14.9201C56.1522 14.9354 56.5183 14.943 56.6785 14.943C57.2657 14.943 58.0551 14.9201 59.0465 14.8744C60.0456 14.8286 60.7473 14.8057 61.1515 14.8057C63.0963 14.8057 64.5453 15.1985 65.4987 15.984C66.4596 16.762 66.9401 17.9441 66.9401 19.5304C66.9401 21.2464 66.3948 22.5697 65.3042 23.5001C64.2136 24.4306 62.6578 24.8958 60.6367 24.8958C60.2554 24.8958 59.8588 24.8843 59.4469 24.8615C59.0351 24.8386 58.5966 24.8043 58.1313 24.7585ZM58.1313 21.4523V22.4362C58.2457 22.4514 58.364 22.4591 58.486 22.4591C58.608 22.4591 58.7949 22.4591 59.0465 22.4591C60.4193 22.4591 61.3955 22.2417 61.9752 21.807C62.5548 21.3723 62.8446 20.6477 62.8446 19.6334C62.8446 18.7487 62.5815 18.0852 62.0552 17.6428C61.5366 17.2005 60.7587 16.9793 59.7215 16.9793C59.2639 16.9793 58.9321 17.0251 58.7262 17.1166C58.5279 17.2081 58.383 17.3645 58.2915 17.5856C58.2305 17.7611 58.1885 18.0737 58.1657 18.5237C58.1428 18.9737 58.1313 19.9499 58.1313 21.4523ZM69.0565 27.2639C69.0565 25.9139 69.0069 24.892 68.9078 24.1979C68.8163 23.4963 68.6752 23.0692 68.4845 22.9167C68.454 22.8938 68.2252 22.8175 67.7981 22.6879C67.371 22.5506 67.1575 22.2951 67.1575 21.9214C67.1575 21.7383 67.2337 21.5667 67.3863 21.4066C67.5464 21.2388 67.7829 21.0825 68.0956 20.9376C68.7972 20.6172 69.5027 20.3617 70.2119 20.1711C70.9289 19.9804 71.5275 19.8851 72.008 19.8851C72.2521 19.8851 72.4389 19.9346 72.5686 20.0338C72.6982 20.1253 72.7859 20.2778 72.8317 20.4914C72.8851 20.7126 72.9194 20.9833 72.9347 21.3036C72.9575 21.6239 73.0186 21.7841 73.1177 21.7841C73.2397 21.7841 73.4075 21.6468 73.6211 21.3723C73.6821 21.2884 73.7316 21.2236 73.7698 21.1778C74.1359 20.7202 74.4867 20.3922 74.8223 20.194C75.1655 19.988 75.5315 19.8851 75.9205 19.8851C76.5001 19.8851 76.9653 20.091 77.3162 20.5028C77.667 20.9147 77.8424 21.46 77.8424 22.1387C77.8424 22.7489 77.6708 23.2561 77.3276 23.6603C76.992 24.0645 76.5726 24.2666 76.0692 24.2666C75.6497 24.2666 75.2227 24.0797 74.7879 23.706C74.3532 23.3323 74.0443 23.1455 73.8613 23.1455C73.5257 23.1455 73.2931 23.3971 73.1635 23.9005C73.0338 24.3962 72.969 25.4563 72.969 27.0808C72.969 28.1638 72.988 28.8654 73.0262 29.1858C73.0643 29.4985 73.133 29.712 73.2321 29.8264C73.2855 29.8874 73.5333 30.0133 73.9757 30.2039C74.418 30.3946 74.6392 30.673 74.6392 31.039C74.6392 31.4433 74.3799 31.7293 73.8613 31.897C73.3503 32.0572 72.4046 32.1373 71.0242 32.1373C69.72 32.1373 68.8277 32.0572 68.3472 31.897C67.8668 31.7293 67.6265 31.4433 67.6265 31.039C67.6265 30.6806 67.8706 30.387 68.3587 30.1582C68.5493 30.0666 68.679 29.9942 68.7476 29.9408C68.862 29.8569 68.9421 29.6662 68.9879 29.3688C69.0336 29.0637 69.0565 28.3621 69.0565 27.2639ZM78.769 16.659C78.769 16.1023 79.0283 15.6256 79.547 15.229C80.0656 14.8324 80.6948 14.6341 81.4346 14.6341C82.121 14.6341 82.6891 14.8134 83.1391 15.1718C83.5967 15.5226 83.8255 15.9612 83.8255 16.4874C83.8255 17.0289 83.5738 17.4903 83.0705 17.8716C82.5671 18.2453 81.9455 18.4322 81.2058 18.4322C80.4889 18.4322 79.9016 18.2644 79.444 17.9288C78.994 17.5933 78.769 17.17 78.769 16.659ZM83.5624 24.4839V27.4126C83.5624 28.3583 83.5853 28.9913 83.631 29.3116C83.6768 29.6319 83.7569 29.8417 83.8713 29.9408C83.9475 29.9942 84.081 30.0666 84.2717 30.1582C84.7521 30.387 84.9924 30.6806 84.9924 31.039C84.9924 31.4433 84.7483 31.7293 84.2602 31.897C83.7721 32.0572 82.8836 32.1373 81.5947 32.1373C80.3211 32.1373 79.4402 32.0572 78.9521 31.897C78.4716 31.7293 78.2314 31.4433 78.2314 31.039C78.2314 30.6806 78.4678 30.387 78.9406 30.1582C79.1237 30.0666 79.2533 29.9942 79.3296 29.9408C79.4516 29.834 79.5355 29.5976 79.5813 29.2315C79.627 28.8654 79.6499 28.1333 79.6499 27.0351C79.6499 25.3191 79.6194 24.2361 79.5584 23.7861C79.4974 23.3285 79.3868 23.0349 79.2266 22.9052C79.1961 22.8823 78.9711 22.8061 78.5517 22.6764C78.1322 22.5468 77.9225 22.2951 77.9225 21.9214C77.9225 21.7383 77.9988 21.5667 78.1513 21.4066C78.3114 21.2388 78.5479 21.0825 78.8606 20.9376C79.5698 20.6096 80.2715 20.3541 80.9655 20.1711C81.6595 19.9804 82.2544 19.8851 82.7502 19.8851C83.0934 19.8851 83.3183 19.9537 83.4251 20.091C83.5395 20.2283 83.5967 20.5333 83.5967 21.0062C83.5967 21.0748 83.5929 21.2426 83.5853 21.5095C83.57 22.562 83.5624 23.5535 83.5624 24.4839ZM91.1585 20.7316V21.4523C91.1585 21.5591 91.17 21.643 91.1928 21.704C91.2157 21.7574 91.25 21.7841 91.2958 21.7841C91.4178 21.7841 91.5627 21.6735 91.7305 21.4523C91.8297 21.3227 91.9059 21.2274 91.9593 21.1664C92.3635 20.7164 92.8059 20.3922 93.2864 20.194C93.7745 19.988 94.3617 19.8851 95.0481 19.8851C96.5811 19.8851 97.6869 20.3122 98.3657 21.1664C99.0445 22.0205 99.3839 23.42 99.3839 25.3648V27.3554C99.3839 28.2401 99.3991 28.8502 99.4296 29.1858C99.4601 29.5137 99.5135 29.7273 99.5898 29.8264C99.6355 29.8798 99.8491 30.0133 100.23 30.2268C100.619 30.4327 100.814 30.7035 100.814 31.039C100.814 31.4433 100.57 31.7293 100.082 31.897C99.6012 32.0572 98.7203 32.1373 97.4391 32.1373C96.1502 32.1373 95.2617 32.0572 94.7736 31.897C94.2855 31.7293 94.0414 31.4433 94.0414 31.039C94.0414 30.6806 94.2855 30.387 94.7736 30.1582C94.9642 30.0666 95.0939 29.9942 95.1625 29.9408C95.2769 29.8417 95.357 29.6319 95.4028 29.3116C95.4485 28.9837 95.4714 28.343 95.4714 27.3897C95.4714 25.4144 95.3303 24.1484 95.0481 23.5916C94.7659 23.0273 94.2511 22.7451 93.5037 22.7451C92.6877 22.7451 92.0928 23.0883 91.7191 23.7747C91.3454 24.4611 91.1585 25.5631 91.1585 27.0808C91.1585 27.9731 91.1738 28.6252 91.2043 29.037C91.2424 29.4413 91.3034 29.7006 91.3873 29.815C91.4331 29.876 91.6428 30.0133 92.0165 30.2268C92.3979 30.4327 92.5885 30.7035 92.5885 31.039C92.5885 31.4433 92.3445 31.7293 91.8564 31.897C91.3759 32.0572 90.495 32.1373 89.2137 32.1373C87.9325 32.1373 87.044 32.0572 86.5482 31.897C86.0601 31.7293 85.8161 31.4433 85.8161 31.039C85.8161 30.6806 86.0601 30.387 86.5482 30.1582C86.7389 30.0666 86.8685 29.9942 86.9372 29.9408C87.0592 29.8417 87.1431 29.609 87.1889 29.243C87.2422 28.8769 87.2689 28.0151 87.2689 26.6575C87.2689 25.1932 87.2384 24.2323 87.1774 23.7747C87.1164 23.3171 87.0096 23.0311 86.8571 22.9167C86.8266 22.8938 86.5978 22.8175 86.1707 22.6879C85.7436 22.5506 85.5301 22.2951 85.5301 21.9214C85.5301 21.7383 85.6063 21.5667 85.7589 21.4066C85.919 21.2388 86.1554 21.0825 86.4681 20.9376C87.1698 20.6096 87.8676 20.3541 88.5617 20.1711C89.2633 19.9804 89.862 19.8851 90.3577 19.8851C90.6628 19.8851 90.8725 19.9461 90.9869 20.0681C91.1013 20.1825 91.1585 20.4037 91.1585 20.7316ZM102.804 28.0875L102.85 21.9443H101.443C101.245 21.9443 101.111 21.9023 101.043 21.8184C100.982 21.7345 100.951 21.4752 100.951 21.0405C100.951 20.6668 101.23 20.2778 101.786 19.8736C101.901 19.7897 101.992 19.7249 102.061 19.6792C102.244 19.5342 102.507 19.3321 102.85 19.0728C104.421 17.8831 105.462 17.2882 105.973 17.2882C106.271 17.2882 106.461 17.3301 106.545 17.414C106.629 17.4903 106.671 17.7305 106.671 18.1348V18.272V20.0796H109.577C109.821 20.0796 109.977 20.1139 110.046 20.1825C110.122 20.2435 110.16 20.3808 110.16 20.5944C110.16 21.2045 110.122 21.5782 110.046 21.7155C109.97 21.8527 109.752 21.9214 109.394 21.9214H106.671V27.4583C106.671 28.4422 106.759 29.1095 106.934 29.4603C107.117 29.8112 107.434 29.9866 107.884 29.9866C108.181 29.9866 108.551 29.8912 108.993 29.7006C109.436 29.5023 109.741 29.4031 109.909 29.4031C110.092 29.4031 110.248 29.4718 110.378 29.609C110.515 29.7387 110.584 29.9027 110.584 30.101C110.584 30.6501 110.176 31.1649 109.36 31.6454C108.543 32.1182 107.602 32.3546 106.534 32.3546C105.222 32.3546 104.273 32.0305 103.685 31.3822C103.098 30.7264 102.804 29.6586 102.804 28.1791V28.0875ZM123.888 24.7585C123.888 24.9797 123.884 25.2809 123.877 25.6623C123.869 26.036 123.865 26.3067 123.865 26.4745C123.865 27.3973 123.884 28.1028 123.923 28.5909C123.968 29.0714 124.033 29.3688 124.117 29.4832C124.17 29.5595 124.426 29.7158 124.884 29.9522C125.349 30.181 125.581 30.4976 125.581 30.9018C125.581 31.3517 125.318 31.6682 124.792 31.8513C124.266 32.0267 123.271 32.1144 121.806 32.1144C120.296 32.1144 119.282 32.0267 118.763 31.8513C118.245 31.6759 117.985 31.3594 117.985 30.9018C117.985 30.4976 118.214 30.181 118.672 29.9522C119.129 29.7158 119.385 29.5633 119.438 29.4946C119.553 29.3345 119.64 28.6748 119.701 27.5155C119.762 26.3487 119.793 24.7814 119.793 22.8137C119.793 21.2579 119.762 20.0109 119.701 19.0728C119.64 18.1348 119.553 17.5856 119.438 17.4255C119.385 17.3492 119.129 17.1967 118.672 16.9679C118.214 16.7391 117.985 16.4226 117.985 16.0184C117.985 15.6523 118.145 15.3739 118.466 15.1832C118.786 14.9926 119.259 14.8972 119.884 14.8972C120.288 14.8972 120.773 14.9049 121.337 14.9201C121.909 14.9354 122.275 14.943 122.435 14.943C123.023 14.943 123.812 14.9201 124.803 14.8744C125.803 14.8286 126.504 14.8057 126.908 14.8057C128.853 14.8057 130.302 15.1985 131.256 15.984C132.217 16.762 132.697 17.9441 132.697 19.5304C132.697 21.2464 132.152 22.5697 131.061 23.5001C129.971 24.4306 128.415 24.8958 126.394 24.8958C126.012 24.8958 125.616 24.8843 125.204 24.8615C124.792 24.8386 124.353 24.8043 123.888 24.7585ZM123.888 21.4523V22.4362C124.003 22.4514 124.121 22.4591 124.243 22.4591C124.365 22.4591 124.552 22.4591 124.803 22.4591C126.176 22.4591 127.152 22.2417 127.732 21.807C128.312 21.3723 128.602 20.6477 128.602 19.6334C128.602 18.7487 128.338 18.0852 127.812 17.6428C127.294 17.2005 126.516 16.9793 125.478 16.9793C125.021 16.9793 124.689 17.0251 124.483 17.1166C124.285 17.2081 124.14 17.3645 124.048 17.5856C123.987 17.7611 123.945 18.0737 123.923 18.5237C123.9 18.9737 123.888 19.9499 123.888 21.4523ZM139.641 24.85V23.7518C139.641 22.9967 139.546 22.4781 139.355 22.1959C139.172 21.9061 138.848 21.7612 138.383 21.7612C137.887 21.7612 137.342 22.051 136.747 22.6307C136.693 22.6841 136.651 22.7222 136.621 22.7451C136.59 22.7679 136.549 22.8061 136.495 22.8595C135.679 23.6298 134.955 24.0149 134.322 24.0149C133.917 24.0149 133.597 23.9043 133.361 23.6831C133.132 23.462 133.017 23.1569 133.017 22.7679C133.017 21.9519 133.574 21.2388 134.688 20.6287C135.801 20.0109 137.174 19.702 138.806 19.702C140.446 19.702 141.643 20.0185 142.398 20.6516C143.153 21.2769 143.531 22.2722 143.531 23.6374C143.531 24.0492 143.515 24.5716 143.485 25.2047C143.454 25.8377 143.439 26.2686 143.439 26.4974V28.2019C143.439 28.5375 143.458 28.7816 143.496 28.9341C143.535 29.0866 143.603 29.1934 143.702 29.2544C143.786 29.3154 144.034 29.4146 144.446 29.5518C144.865 29.6815 145.075 29.8874 145.075 30.1696C145.075 30.4518 144.972 30.7187 144.766 30.9704C144.568 31.2221 144.259 31.4699 143.84 31.714C143.496 31.9123 143.149 32.0648 142.799 32.1716C142.455 32.2784 142.139 32.3318 141.849 32.3318C141.422 32.3318 140.999 32.1144 140.579 31.6797C140.16 31.2373 139.927 31.0162 139.881 31.0162C139.843 31.0162 139.736 31.081 139.561 31.2106C138.562 31.9581 137.49 32.3318 136.346 32.3318C135.103 32.3318 134.108 32 133.361 31.3365C132.613 30.6653 132.239 29.7768 132.239 28.671C132.239 27.4202 132.716 26.4478 133.669 25.7538C134.623 25.0598 135.957 24.7127 137.673 24.7127C137.948 24.7127 138.249 24.7242 138.577 24.7471C138.905 24.7699 139.26 24.8043 139.641 24.85ZM139.618 28.3735V26.5431C139.473 26.505 139.325 26.4783 139.172 26.4631C139.02 26.4402 138.848 26.4287 138.657 26.4287C137.948 26.4287 137.403 26.5889 137.021 26.9092C136.648 27.2295 136.461 27.6909 136.461 28.2935C136.461 28.8121 136.598 29.2201 136.873 29.5175C137.155 29.815 137.54 29.9637 138.028 29.9637C138.57 29.9637 138.97 29.834 139.229 29.5747C139.489 29.3154 139.618 28.915 139.618 28.3735ZM145.487 26.2114C145.487 24.3505 146.124 22.8099 147.397 21.5896C148.671 20.3617 150.276 19.7478 152.214 19.7478C153.586 19.7478 154.723 20.0796 155.623 20.7431C156.523 21.399 156.973 22.2074 156.973 23.1683C156.973 23.7251 156.797 24.1789 156.446 24.5297C156.103 24.8729 155.653 25.0445 155.097 25.0445C154.631 25.0445 154.246 24.9072 153.941 24.6327C153.644 24.3581 153.293 23.7289 152.889 22.7451C152.774 22.44 152.58 22.1998 152.305 22.0243C152.038 21.8489 151.733 21.7612 151.39 21.7612C150.795 21.7612 150.334 22.0053 150.006 22.4934C149.685 22.9739 149.525 23.6603 149.525 24.5526C149.525 26.0016 149.857 27.1876 150.521 28.1104C151.192 29.0332 152.046 29.4946 153.083 29.4946C153.579 29.4946 154.158 29.3383 154.822 29.0256C155.493 28.7129 155.92 28.5566 156.103 28.5566C156.34 28.5566 156.534 28.629 156.687 28.7739C156.847 28.9188 156.927 29.1057 156.927 29.3345C156.927 29.5633 156.843 29.8112 156.675 30.0781C156.515 30.3374 156.294 30.5814 156.012 30.8102C155.341 31.3289 154.662 31.714 153.975 31.9657C153.297 32.2097 152.561 32.3318 151.767 32.3318C149.907 32.3318 148.393 31.7674 147.226 30.6386C146.067 29.5023 145.487 28.0265 145.487 26.2114ZM163.002 21.4752V24.1751C163.002 24.32 163.017 24.4153 163.047 24.4611C163.078 24.5068 163.131 24.5297 163.207 24.5297C163.268 24.5297 163.341 24.4992 163.425 24.4382C163.509 24.3772 163.657 24.2513 163.871 24.0607L165.324 22.7222C165.53 22.5315 165.671 22.379 165.747 22.2646C165.823 22.1502 165.862 22.0434 165.862 21.9443C165.862 21.8222 165.797 21.6506 165.667 21.4295C165.545 21.2083 165.484 21.0443 165.484 20.9376C165.484 20.6172 165.709 20.3808 166.159 20.2283C166.617 20.0757 167.33 19.9995 168.298 19.9995C169.183 19.9995 169.82 20.0872 170.209 20.2626C170.605 20.4304 170.804 20.7049 170.804 21.0863C170.804 21.2693 170.758 21.4218 170.666 21.5439C170.582 21.6659 170.472 21.7383 170.335 21.7612L169.351 21.9214C169.32 21.929 169.274 21.9366 169.213 21.9443C168.603 22.0358 168.016 22.3485 167.452 22.8823L166.845 23.4772C166.784 23.5306 166.708 23.6031 166.617 23.6946C166.426 23.87 166.331 23.992 166.331 24.0607C166.331 24.1522 166.418 24.3238 166.594 24.5755C166.777 24.8271 167.055 25.1703 167.429 25.6051C168.1 26.3906 168.741 27.1189 169.351 27.7901C169.961 28.4612 170.453 28.9837 170.826 29.3574C171.246 29.754 171.734 30.0247 172.291 30.1696C172.375 30.1925 172.432 30.2077 172.462 30.2154C172.653 30.2916 172.798 30.3908 172.897 30.5128C173.004 30.6348 173.057 30.7797 173.057 30.9475C173.057 31.3517 172.836 31.6339 172.394 31.7941C171.951 31.9466 171.063 32.0229 169.728 32.0229H169.191C168.649 32.0229 168.249 31.9581 167.989 31.8284C167.73 31.6987 167.44 31.4509 167.12 31.0848C166.418 30.284 165.625 29.3307 164.74 28.2248C163.856 27.1189 163.352 26.566 163.23 26.566C163.177 26.566 163.135 26.5927 163.104 26.6461C163.082 26.6995 163.07 26.8063 163.07 26.9664V27.9274C163.07 28.6061 163.093 29.0904 163.139 29.3802C163.185 29.6624 163.265 29.8493 163.379 29.9408C163.448 29.9942 163.577 30.0666 163.768 30.1582C164.256 30.387 164.5 30.6806 164.5 31.039C164.5 31.4433 164.256 31.7293 163.768 31.897C163.28 32.0572 162.391 32.1373 161.102 32.1373C159.821 32.1373 158.937 32.0572 158.448 31.897C157.968 31.7293 157.728 31.4433 157.728 31.039C157.728 30.7035 157.918 30.4289 158.3 30.2154C158.681 30.0018 158.891 29.8684 158.929 29.815C159.013 29.6929 159.07 29.365 159.1 28.8311C159.139 28.2973 159.158 27.0274 159.158 25.0216V22.3675C159.158 20.621 159.135 19.4542 159.089 18.8669C159.051 18.272 158.978 17.906 158.872 17.7687C158.818 17.6924 158.563 17.5856 158.105 17.4484C157.655 17.3035 157.43 17.048 157.43 16.6819C157.43 16.4988 157.507 16.3311 157.659 16.1785C157.819 16.0184 158.063 15.8658 158.391 15.7209C159.116 15.3777 159.825 15.1108 160.519 14.9201C161.213 14.7295 161.8 14.6341 162.281 14.6341C162.616 14.6341 162.838 14.7142 162.944 14.8744C163.059 15.0345 163.116 15.3701 163.116 15.8811C163.116 16.0641 163.097 16.7772 163.059 18.0204C163.021 19.2635 163.002 20.4151 163.002 21.4752ZM190.526 14.9201C190.93 14.9201 191.35 14.882 191.784 14.8057C192.227 14.7295 192.463 14.6913 192.494 14.6913C192.852 14.6913 193.15 14.9964 193.386 15.6065C193.63 16.209 193.752 16.9717 193.752 17.8945C193.752 18.2911 193.676 18.5924 193.523 18.7983C193.378 18.9966 193.161 19.0957 192.871 19.0957C192.566 19.0957 192.261 18.8784 191.956 18.4436C191.659 18.0089 191.457 17.7496 191.35 17.6657C191.052 17.4293 190.648 17.2615 190.137 17.1624C189.634 17.0556 188.936 17.0022 188.044 17.0022C187.014 17.0022 186.347 17.0403 186.042 17.1166C185.744 17.1852 185.569 17.3111 185.515 17.4941C185.447 17.6924 185.393 18.1195 185.355 18.7754C185.317 19.4237 185.298 20.2321 185.298 21.2007C185.298 21.7345 185.744 22.0015 186.636 22.0015C187.582 22.0015 188.185 21.9366 188.444 21.807C188.711 21.6697 188.898 21.3951 189.005 20.9833C189.035 20.8537 189.062 20.6706 189.085 20.4342C189.169 19.7402 189.455 19.3932 189.943 19.3932C190.37 19.3932 190.671 19.6525 190.846 20.1711C191.022 20.6897 191.11 21.6011 191.11 22.9052C191.11 24.3695 191.018 25.3572 190.835 25.8682C190.66 26.3792 190.339 26.6347 189.874 26.6347C189.432 26.6347 189.176 26.3143 189.108 25.6737C189.077 25.3991 189.043 25.1894 189.005 25.0445C188.898 24.6327 188.711 24.3619 188.444 24.2323C188.185 24.1026 187.59 24.0378 186.659 24.0378H186.522C185.927 24.0378 185.573 24.0797 185.458 24.1636C185.351 24.2399 185.298 24.4763 185.298 24.8729V25.3648C185.298 26.4325 185.317 27.2677 185.355 27.8702C185.401 28.465 185.47 28.8731 185.561 29.0942C185.668 29.3612 185.901 29.5557 186.259 29.6777C186.625 29.7921 187.189 29.8493 187.952 29.8493C189.134 29.8493 190.027 29.7692 190.629 29.609C191.232 29.4489 191.682 29.182 191.979 28.8082C192.17 28.5642 192.398 28.1295 192.665 27.5041C192.932 26.8787 193.249 26.566 193.615 26.566C193.897 26.566 194.111 26.6842 194.256 26.9207C194.408 27.1495 194.484 27.485 194.484 27.9274C194.484 29.0866 194.328 30.1048 194.015 30.9818C193.703 31.8513 193.367 32.286 193.009 32.286C192.97 32.286 192.871 32.2631 192.711 32.2174C192.185 32.0725 191.659 32 191.132 32H182.816C181.26 32 180.291 31.9237 179.91 31.7712C179.536 31.611 179.349 31.3212 179.349 30.9018C179.349 30.4976 179.574 30.181 180.024 29.9522C180.474 29.7158 180.726 29.5633 180.779 29.4946C180.886 29.3345 180.97 28.6748 181.031 27.5155C181.1 26.3487 181.134 24.7814 181.134 22.8137C181.134 21.2579 181.103 20.0109 181.042 19.0728C180.981 18.1348 180.894 17.5856 180.779 17.4255C180.726 17.3492 180.474 17.1967 180.024 16.9679C179.574 16.7391 179.349 16.4226 179.349 16.0184C179.349 15.5989 179.536 15.3129 179.91 15.1604C180.291 15.0002 181.305 14.9201 182.953 14.9201H190.526ZM202.492 23.6831C202.508 23.6831 202.527 23.687 202.549 23.6946C202.572 23.7022 202.584 23.706 202.584 23.706C202.599 23.706 202.618 23.6946 202.641 23.6717C202.725 23.5649 202.843 23.4162 202.996 23.2255C203.583 22.4858 203.877 22.0434 203.877 21.8985C203.877 21.868 203.808 21.7765 203.671 21.6239C203.541 21.4638 203.476 21.2846 203.476 21.0863C203.476 20.7049 203.69 20.4304 204.117 20.2626C204.544 20.0872 205.238 19.9995 206.199 19.9995C206.916 19.9995 207.446 20.0834 207.789 20.2512C208.132 20.4113 208.304 20.6554 208.304 20.9833C208.304 21.357 207.949 21.6773 207.24 21.9443C206.881 22.0815 206.595 22.1998 206.382 22.2989C206.031 22.4667 205.661 22.7527 205.272 23.1569C204.891 23.5611 204.38 24.2132 203.739 25.1131C203.732 25.1208 203.724 25.1284 203.716 25.136C203.716 25.1436 203.716 25.1589 203.716 25.1818C203.716 25.2047 203.716 25.2237 203.716 25.239C203.724 25.2542 203.732 25.2657 203.739 25.2733C204.441 26.3029 205.089 27.2143 205.684 28.0075C206.287 28.793 206.721 29.3192 206.988 29.5862C207.125 29.7234 207.427 29.8989 207.892 30.1124C208.357 30.3183 208.59 30.6043 208.59 30.9704C208.59 31.3517 208.323 31.6301 207.789 31.8055C207.255 31.9809 206.397 32.0686 205.215 32.0686C203.903 32.0686 203.007 31.9886 202.527 31.8284C202.054 31.6606 201.817 31.3746 201.817 30.9704C201.817 30.795 201.924 30.631 202.138 30.4785C202.359 30.3183 202.469 30.223 202.469 30.1925C202.469 30.0552 202.321 29.7692 202.023 29.3345C201.733 28.8921 201.272 28.2744 200.639 27.4812H200.547C199.945 28.2515 199.499 28.8464 199.209 29.2658C198.919 29.6853 198.774 29.9484 198.774 30.0552C198.774 30.1696 198.843 30.3221 198.98 30.5128C199.118 30.7035 199.186 30.8636 199.186 30.9933C199.186 31.3746 198.995 31.6492 198.614 31.817C198.233 31.9847 197.604 32.0686 196.727 32.0686C195.91 32.0686 195.342 32 195.022 31.8627C194.709 31.7254 194.553 31.489 194.553 31.1534C194.553 30.7492 194.896 30.4327 195.583 30.2039C195.964 30.0743 196.238 29.9561 196.406 29.8493C196.711 29.6434 197.116 29.2239 197.619 28.5909C198.13 27.9503 198.732 27.0961 199.426 26.0283C199.434 26.0207 199.438 26.0131 199.438 26.0055C199.445 25.9902 199.449 25.975 199.449 25.9597C199.449 25.9292 199.445 25.9063 199.438 25.8911C199.438 25.8758 199.434 25.8644 199.426 25.8567C198.488 24.545 197.817 23.6374 197.413 23.134C197.009 22.623 196.704 22.3065 196.498 22.1845C196.406 22.1311 196.238 22.0701 195.994 22.0015C195.407 21.8489 195.114 21.5667 195.114 21.1549C195.114 20.7278 195.369 20.4266 195.88 20.2512C196.391 20.0681 197.291 19.9766 198.58 19.9766C199.678 19.9766 200.456 20.0643 200.914 20.2397C201.371 20.4075 201.6 20.6897 201.6 21.0863C201.6 21.2083 201.535 21.3532 201.405 21.521C201.276 21.6888 201.211 21.7917 201.211 21.8299C201.211 21.929 201.31 22.1235 201.508 22.4133C201.707 22.6955 202.035 23.1188 202.492 23.6831ZM208.292 26.2114C208.292 24.3505 208.929 22.8099 210.203 21.5896C211.476 20.3617 213.082 19.7478 215.019 19.7478C216.392 19.7478 217.528 20.0796 218.428 20.7431C219.328 21.399 219.778 22.2074 219.778 23.1683C219.778 23.7251 219.603 24.1789 219.252 24.5297C218.909 24.8729 218.459 25.0445 217.902 25.0445C217.437 25.0445 217.052 24.9072 216.746 24.6327C216.449 24.3581 216.098 23.7289 215.694 22.7451C215.58 22.44 215.385 22.1998 215.111 22.0243C214.844 21.8489 214.539 21.7612 214.195 21.7612C213.6 21.7612 213.139 22.0053 212.811 22.4934C212.491 22.9739 212.331 23.6603 212.331 24.5526C212.331 26.0016 212.662 27.1876 213.326 28.1104C213.997 29.0332 214.851 29.4946 215.888 29.4946C216.384 29.4946 216.964 29.3383 217.627 29.0256C218.299 28.7129 218.726 28.5566 218.909 28.5566C219.145 28.5566 219.34 28.629 219.492 28.7739C219.652 28.9188 219.732 29.1057 219.732 29.3345C219.732 29.5633 219.648 29.8112 219.481 30.0781C219.32 30.3374 219.099 30.5814 218.817 30.8102C218.146 31.3289 217.467 31.714 216.781 31.9657C216.102 32.2097 215.366 32.3318 214.573 32.3318C212.712 32.3318 211.198 31.7674 210.031 30.6386C208.872 29.5023 208.292 28.0265 208.292 26.2114ZM225.67 21.4523C225.67 21.5591 225.681 21.643 225.704 21.704C225.727 21.7574 225.761 21.7841 225.807 21.7841C225.929 21.7841 226.074 21.6697 226.242 21.4409C226.333 21.3265 226.409 21.235 226.47 21.1664C226.89 20.7011 227.34 20.3656 227.82 20.1596C228.301 19.9461 228.873 19.8393 229.536 19.8393C231.062 19.8393 232.164 20.274 232.843 21.1435C233.529 22.0053 233.872 23.4124 233.872 25.3648V27.3554C233.872 28.2401 233.887 28.8502 233.918 29.1858C233.948 29.5137 234.002 29.7273 234.078 29.8264C234.116 29.8798 234.326 30.0133 234.707 30.2268C235.096 30.4327 235.291 30.7035 235.291 31.039C235.291 31.4433 235.047 31.7293 234.559 31.897C234.078 32.0572 233.201 32.1373 231.927 32.1373C230.638 32.1373 229.75 32.0572 229.262 31.897C228.774 31.7293 228.53 31.4433 228.53 31.039C228.53 30.6806 228.77 30.387 229.25 30.1582C229.441 30.0666 229.575 29.9942 229.651 29.9408C229.765 29.8417 229.841 29.6319 229.88 29.3116C229.925 28.9837 229.948 28.343 229.948 27.3897C229.948 25.4373 229.807 24.1751 229.525 23.6031C229.243 23.0311 228.728 22.7451 227.981 22.7451C227.164 22.7451 226.57 23.0845 226.196 23.7632C225.83 24.442 225.647 25.5402 225.647 27.0579C225.647 27.9579 225.662 28.6138 225.693 29.0256C225.731 29.4374 225.792 29.7006 225.876 29.815C225.921 29.876 226.131 30.0133 226.505 30.2268C226.886 30.4327 227.077 30.7035 227.077 31.039C227.077 31.4433 226.833 31.7293 226.345 31.897C225.857 32.0572 224.976 32.1373 223.702 32.1373C222.421 32.1373 221.536 32.0572 221.048 31.897C220.567 31.7293 220.327 31.4433 220.327 31.039C220.327 30.6806 220.564 30.387 221.036 30.1582C221.22 30.0666 221.349 29.9942 221.425 29.9408C221.57 29.8264 221.669 29.4069 221.723 28.6824C221.776 27.9503 221.803 26.1504 221.803 23.2827C221.803 21.0176 221.769 19.5495 221.7 18.8784C221.631 18.1996 221.506 17.7916 221.322 17.6543C221.292 17.6314 221.067 17.5589 220.648 17.4369C220.228 17.3073 220.018 17.0556 220.018 16.6819C220.018 16.4607 220.114 16.2662 220.304 16.0984C220.495 15.9307 220.869 15.7324 221.425 15.5036C222.097 15.2214 222.73 15.0078 223.324 14.8629C223.919 14.7104 224.442 14.6341 224.892 14.6341C225.235 14.6341 225.464 14.7104 225.578 14.8629C225.7 15.0155 225.761 15.332 225.761 15.8124C225.761 16.209 225.746 16.945 225.715 18.0204C225.685 19.0957 225.67 19.969 225.67 20.6401V21.4523ZM243.402 24.85V23.7518C243.402 22.9967 243.306 22.4781 243.116 22.1959C242.933 21.9061 242.608 21.7612 242.143 21.7612C241.647 21.7612 241.102 22.051 240.507 22.6307C240.454 22.6841 240.412 22.7222 240.381 22.7451C240.351 22.7679 240.309 22.8061 240.256 22.8595C239.44 23.6298 238.715 24.0149 238.082 24.0149C237.678 24.0149 237.358 23.9043 237.121 23.6831C236.892 23.462 236.778 23.1569 236.778 22.7679C236.778 21.9519 237.335 21.2388 238.448 20.6287C239.562 20.0109 240.934 19.702 242.567 19.702C244.206 19.702 245.404 20.0185 246.159 20.6516C246.914 21.2769 247.291 22.2722 247.291 23.6374C247.291 24.0492 247.276 24.5716 247.245 25.2047C247.215 25.8377 247.2 26.2686 247.2 26.4974V28.2019C247.2 28.5375 247.219 28.7816 247.257 28.9341C247.295 29.0866 247.364 29.1934 247.463 29.2544C247.547 29.3154 247.795 29.4146 248.206 29.5518C248.626 29.6815 248.836 29.8874 248.836 30.1696C248.836 30.4518 248.733 30.7187 248.527 30.9704C248.328 31.2221 248.02 31.4699 247.6 31.714C247.257 31.9123 246.91 32.0648 246.559 32.1716C246.216 32.2784 245.899 32.3318 245.61 32.3318C245.182 32.3318 244.759 32.1144 244.34 31.6797C243.92 31.2373 243.688 31.0162 243.642 31.0162C243.604 31.0162 243.497 31.081 243.322 31.2106C242.322 31.9581 241.251 32.3318 240.107 32.3318C238.864 32.3318 237.868 32 237.121 31.3365C236.374 30.6653 236 29.7768 236 28.671C236 27.4202 236.477 26.4478 237.43 25.7538C238.383 25.0598 239.718 24.7127 241.434 24.7127C241.709 24.7127 242.01 24.7242 242.338 24.7471C242.666 24.7699 243.02 24.8043 243.402 24.85ZM243.379 28.3735V26.5431C243.234 26.505 243.085 26.4783 242.933 26.4631C242.78 26.4402 242.608 26.4287 242.418 26.4287C241.709 26.4287 241.163 26.5889 240.782 26.9092C240.408 27.2295 240.221 27.6909 240.221 28.2935C240.221 28.8121 240.359 29.2201 240.633 29.5175C240.915 29.815 241.3 29.9637 241.789 29.9637C242.33 29.9637 242.73 29.834 242.99 29.5747C243.249 29.3154 243.379 28.915 243.379 28.3735ZM254.498 20.7316V21.4523C254.498 21.5591 254.51 21.643 254.533 21.704C254.556 21.7574 254.59 21.7841 254.636 21.7841C254.758 21.7841 254.903 21.6735 255.07 21.4523C255.17 21.3227 255.246 21.2274 255.299 21.1664C255.703 20.7164 256.146 20.3922 256.626 20.194C257.114 19.988 257.702 19.8851 258.388 19.8851C259.921 19.8851 261.027 20.3122 261.706 21.1664C262.384 22.0205 262.724 23.42 262.724 25.3648V27.3554C262.724 28.2401 262.739 28.8502 262.769 29.1858C262.8 29.5137 262.853 29.7273 262.93 29.8264C262.975 29.8798 263.189 30.0133 263.57 30.2268C263.959 30.4327 264.154 30.7035 264.154 31.039C264.154 31.4433 263.91 31.7293 263.422 31.897C262.941 32.0572 262.06 32.1373 260.779 32.1373C259.49 32.1373 258.602 32.0572 258.113 31.897C257.625 31.7293 257.381 31.4433 257.381 31.039C257.381 30.6806 257.625 30.387 258.113 30.1582C258.304 30.0666 258.434 29.9942 258.502 29.9408C258.617 29.8417 258.697 29.6319 258.743 29.3116C258.788 28.9837 258.811 28.343 258.811 27.3897C258.811 25.4144 258.67 24.1484 258.388 23.5916C258.106 23.0273 257.591 22.7451 256.844 22.7451C256.028 22.7451 255.433 23.0883 255.059 23.7747C254.685 24.4611 254.498 25.5631 254.498 27.0808C254.498 27.9731 254.514 28.6252 254.544 29.037C254.582 29.4413 254.643 29.7006 254.727 29.815C254.773 29.876 254.983 30.0133 255.356 30.2268C255.738 30.4327 255.928 30.7035 255.928 31.039C255.928 31.4433 255.684 31.7293 255.196 31.897C254.716 32.0572 253.835 32.1373 252.554 32.1373C251.272 32.1373 250.384 32.0572 249.888 31.897C249.4 31.7293 249.156 31.4433 249.156 31.039C249.156 30.6806 249.4 30.387 249.888 30.1582C250.079 30.0666 250.208 29.9942 250.277 29.9408C250.399 29.8417 250.483 29.609 250.529 29.243C250.582 28.8769 250.609 28.0151 250.609 26.6575C250.609 25.1932 250.578 24.2323 250.517 23.7747C250.456 23.3171 250.349 23.0311 250.197 22.9167C250.166 22.8938 249.938 22.8175 249.511 22.6879C249.083 22.5506 248.87 22.2951 248.87 21.9214C248.87 21.7383 248.946 21.5667 249.099 21.4066C249.259 21.2388 249.495 21.0825 249.808 20.9376C250.51 20.6096 251.207 20.3541 251.902 20.1711C252.603 19.9804 253.202 19.8851 253.698 19.8851C254.003 19.8851 254.212 19.9461 254.327 20.0681C254.441 20.1825 254.498 20.4037 254.498 20.7316ZM267.86 32.286C267.792 32.4309 267.746 32.5415 267.723 32.6178C267.7 32.694 267.689 32.7627 267.689 32.8237C267.689 33.388 267.963 33.8533 268.512 34.2194C269.061 34.5854 269.778 34.7685 270.663 34.7685C271.609 34.7685 272.345 34.6274 272.871 34.3452C273.397 34.063 273.66 33.6702 273.66 33.1669C273.66 32.8389 273.565 32.5949 273.374 32.4347C273.184 32.2822 272.89 32.2059 272.493 32.2059C272.371 32.2059 271.994 32.2402 271.361 32.3089C270.728 32.3851 270.152 32.4233 269.633 32.4233C269.359 32.4233 269.073 32.4118 268.775 32.389C268.478 32.3661 268.173 32.3318 267.86 32.286ZM270.594 26.7948C271.166 26.7948 271.613 26.5965 271.933 26.1999C272.261 25.7957 272.425 25.239 272.425 24.5297C272.425 23.706 272.23 23.0196 271.841 22.4705C271.46 21.9214 270.991 21.6468 270.434 21.6468C269.908 21.6468 269.477 21.8527 269.142 22.2646C268.814 22.6688 268.65 23.2027 268.65 23.8662C268.65 24.7204 268.833 25.422 269.199 25.9711C269.572 26.5203 270.038 26.7948 270.594 26.7948ZM266.19 31.5996C265.748 31.3861 265.416 31.1306 265.195 30.8331C264.981 30.5357 264.874 30.1887 264.874 29.7921C264.874 29.3269 265.023 28.9112 265.321 28.5451C265.626 28.1714 266.072 27.8625 266.659 27.6185C266.247 27.2753 265.927 26.8329 265.698 26.2915C265.477 25.75 265.366 25.1475 265.366 24.4839C265.366 23.0578 265.854 21.9252 266.831 21.0863C267.815 20.2397 269.142 19.8164 270.812 19.8164C271.475 19.8164 272.15 19.9194 272.837 20.1253C273.523 20.3236 273.885 20.4228 273.923 20.4228C274.267 20.4228 274.656 20.3236 275.09 20.1253C275.533 19.927 275.956 19.6525 276.36 19.3016C276.558 19.4084 276.703 19.5419 276.795 19.702C276.894 19.8622 276.944 20.0567 276.944 20.2855C276.944 20.6592 276.814 21.01 276.555 21.3379C276.295 21.6583 275.895 21.9633 275.353 22.2531C275.491 22.5201 275.594 22.8023 275.662 23.0997C275.739 23.3895 275.777 23.6946 275.777 24.0149C275.777 25.3953 275.25 26.5355 274.198 27.4355C273.153 28.3354 271.811 28.7854 270.171 28.7854C269.675 28.7854 269.233 28.7472 268.844 28.671C268.463 28.5871 268.116 28.4612 267.803 28.2935C267.696 28.4079 267.616 28.5184 267.563 28.6252C267.509 28.732 267.483 28.8426 267.483 28.957C267.483 29.2925 267.662 29.5404 268.02 29.7006C268.387 29.8607 268.955 29.9408 269.725 29.9408C270.198 29.9408 270.896 29.8912 271.818 29.7921C272.741 29.6853 273.428 29.6319 273.878 29.6319C274.945 29.6319 275.761 29.8645 276.326 30.3298C276.898 30.7874 277.184 31.4471 277.184 32.3089C277.184 33.5825 276.539 34.6541 275.25 35.5235C273.969 36.3929 272.349 36.8277 270.388 36.8277C268.596 36.8277 267.185 36.5379 266.156 35.9582C265.134 35.3786 264.623 34.5969 264.623 33.613C264.623 33.1554 264.749 32.7627 265 32.4347C265.252 32.1144 265.649 31.836 266.19 31.5996ZM288.098 26.2343H282.355C282.088 26.2343 281.92 26.2609 281.851 26.3143C281.783 26.3677 281.748 26.4669 281.748 26.6118C281.748 27.4202 282.046 28.1219 282.641 28.7167C283.243 29.3116 283.975 29.609 284.837 29.609C285.478 29.609 286.153 29.4413 286.862 29.1057C287.571 28.7701 287.983 28.6023 288.098 28.6023C288.319 28.6023 288.506 28.671 288.658 28.8082C288.818 28.9379 288.898 29.0942 288.898 29.2773C288.898 29.5824 288.818 29.8645 288.658 30.1238C288.506 30.3755 288.239 30.6501 287.857 30.9475C287.293 31.3975 286.652 31.7407 285.935 31.9771C285.226 32.2135 284.479 32.3318 283.693 32.3318C281.855 32.3318 280.364 31.7598 279.22 30.6158C278.076 29.4641 277.504 27.9731 277.504 26.1427C277.504 24.2895 278.095 22.7641 279.277 21.5667C280.459 20.3694 281.962 19.7707 283.785 19.7707C285.371 19.7707 286.671 20.2168 287.686 21.1092C288.708 22.0015 289.219 23.134 289.219 24.5068C289.219 25.2314 289.142 25.7004 288.99 25.9139C288.837 26.1275 288.54 26.2343 288.098 26.2343ZM282.126 24.5297H285.146C285.306 24.5297 285.421 24.4992 285.489 24.4382C285.558 24.3772 285.592 24.2666 285.592 24.1064C285.592 23.4048 285.405 22.8328 285.032 22.3904C284.658 21.9405 284.181 21.7155 283.602 21.7155C283.075 21.7155 282.622 21.9557 282.24 22.4362C281.867 22.9167 281.68 23.5039 281.68 24.1979C281.68 24.32 281.71 24.4039 281.771 24.4496C281.84 24.4954 281.958 24.5221 282.126 24.5297Z" fill="white"/>
<defs>
<radialGradient id="paint0_radial_1072_46710" cx="0" cy="0" r="1" gradientUnits="userSpaceOnUse" gradientTransform="translate(21.5247 42.5257) rotate(-176.766) scale(20.4774 3.27854)">
<stop stop-color="#272727"/>
<stop offset="0.0643" stop-color="#4C4C4C"/>
<stop offset="0.1592" stop-color="#7B7B7B"/>
<stop offset="0.2572" stop-color="#A3A3A3"/>
<stop offset="0.3569" stop-color="#C5C5C5"/>
<stop offset="0.4588" stop-color="#DEDEDE"/>
<stop offset="0.5637" stop-color="#F1F1F1"/>
<stop offset="0.6735" stop-color="#FBFBFB"/>
<stop offset="0.7963" stop-color="white"/>
</radialGradient>
<clipPath id="clip0_1072_46710">
<rect width="18.9064" height="19.6707" fill="white" transform="matrix(0.912743 0.408534 -0.408936 0.912563 17.937 13.7415)"/>
</clipPath>
</defs>
</svg>
