<svg width="20" height="20" viewBox="0 0 20 20" fill="none" xmlns="http://www.w3.org/2000/svg">
<path d="M16.3333 4.16667V3.66667H15.8333H4.16667H3.66667V4.16667V15.8333V16.3333H4.16667H15.8333H16.3333V15.8333V4.16667ZM16.6583 3.34171L17.0101 2.98991L16.6583 3.34171C16.8771 3.5605 17 3.85725 17 4.16667V15.8333C17 16.1428 16.8771 16.4395 16.6583 16.6583C16.4395 16.8771 16.1428 17 15.8333 17H4.16667C3.85725 17 3.5605 16.8771 3.34171 16.6583L2.98991 17.0101L3.34171 16.6583C3.12292 16.4395 3 16.1428 3 15.8333V4.16667C3 3.85725 3.12292 3.5605 3.34171 3.34171C3.5605 3.12292 3.85725 3 4.16667 3H15.8333C16.1428 3 16.4395 3.12292 16.6583 3.34171ZM13 10.8333V10.3333H12.5H7.5H7V10.8333V12.5V13H7.5H12.5H13V12.5V10.8333ZM13.3333 9.66667C13.4217 9.66667 13.5065 9.70179 13.569 9.7643C13.6315 9.82681 13.6667 9.91159 13.6667 10V13.3333C13.6667 13.4217 13.6315 13.5065 13.569 13.569C13.5065 13.6315 13.4217 13.6667 13.3333 13.6667H6.66667C6.57826 13.6667 6.49348 13.6315 6.43096 13.569C6.36845 13.5065 6.33333 13.4217 6.33333 13.3333V10C6.33333 9.91159 6.36845 9.82681 6.43096 9.7643C6.49348 9.70179 6.57826 9.66667 6.66667 9.66667H13.3333ZM13.5612 6.42428L13.9045 6.06071L13.5612 6.42428C13.623 6.4826 13.6602 6.56232 13.6652 6.64713C13.6701 6.73195 13.6426 6.81546 13.588 6.88061C13.5359 6.94285 13.463 6.98385 13.383 6.99613L13.3184 7L6.66722 7C6.66712 7 6.66702 7 6.66692 7C6.58207 6.99983 6.50047 6.9673 6.43877 6.90905C6.37699 6.85073 6.33981 6.77102 6.33483 6.6862C6.32985 6.60139 6.35745 6.51787 6.41198 6.45272C6.46407 6.39048 6.53699 6.34949 6.61696 6.3372L6.68161 6.33333L13.3328 6.33333C13.3328 6.33333 13.3329 6.33333 13.333 6.33333C13.4178 6.33347 13.4995 6.366 13.5612 6.42428Z" fill="#132235" stroke="#364B63"/>
</svg>
