<svg width="719" height="95" viewBox="0 0 719 95" fill="none" xmlns="http://www.w3.org/2000/svg">
<g style="mix-blend-mode:multiply" opacity="0.72">
<path d="M2.15606 84.7727C1.94578 88.4615 20.5573 92.5314 43.7133 93.8482C66.8976 95.1807 85.8292 93.2465 86.0144 89.5609C86.2404 85.8501 67.654 81.7644 44.4697 80.4508C21.3199 79.112 2.3632 81.0587 2.15606 84.7727Z" fill="url(#paint0_radial_1382_3609)"/>
</g>
<path fill-rule="evenodd" clip-rule="evenodd" d="M14.4843 57.0675C17.7264 62.3408 22.5158 66.9809 27.3742 71.6903C26.2475 67.4628 24.6061 62.7314 24.4994 58.485C23.3004 50.0459 24.1792 42.6179 26.2193 35.171L25.67 34.6387C10.5455 44.971 1.3276 59.953 0 75.3098C1.45628 67.362 6.11385 60.3656 14.4843 57.0675Z" fill="#E89818"/>
<path fill-rule="evenodd" clip-rule="evenodd" d="M41.7864 80.3657C56.164 87.0093 71.4329 87.255 83.4378 82.3187C76.668 84.0324 69.7726 82.5582 62.8082 77.8928C65.3818 74.1757 67.4093 69.9293 68.4105 65.62C66.314 67.7999 63.709 69.4127 61.0946 71.0918C55.4233 75.9492 48.5907 78.6867 41.7864 80.3657Z" fill="#7AAE25"/>
<path fill-rule="evenodd" clip-rule="evenodd" d="M70.6359 42.4635C69.2486 23.4179 59.491 7.68312 46.1836 0C53.6533 5.17248 58.496 13.0037 57.6769 23.6227C51.3088 23.7361 45.0286 24.9331 38.739 27.1193C43.996 28.0801 49.3033 29.0756 54.1272 31.6051C59.9555 34.1189 65.8182 37.7888 70.6359 42.4635Z" fill="#3976CF"/>
<g clip-path="url(#clip0_1382_3609)">
<path fill-rule="evenodd" clip-rule="evenodd" d="M51.8118 41.8811C53.7854 42.7649 55.4338 44.0831 56.6905 45.6693C64.4463 44.8991 63.4596 44.0922 67.4968 49.6595L58.5358 50.5483C55.9119 50.8094 53.2868 51.196 50.6674 51.4318C49.8081 51.5075 48.4196 51.6361 47.6061 51.2718C46.7898 50.9062 45.9599 49.7875 45.4484 49.0945C43.8801 46.9832 42.4206 44.7672 40.8681 42.6358L35.5685 35.3569L41.5422 35.003C45.6729 33.9193 50.198 34.1891 54.4116 36.0761C57.2874 37.3641 59.6946 39.2609 61.5542 41.5435L58.1245 41.8837C56.7559 40.5475 55.1333 39.4251 53.2857 38.5977C50.0318 37.1404 46.5644 36.8122 43.3219 37.4409L45.744 40.7634C47.7572 40.6451 49.8382 40.9972 51.8118 41.8811Z" fill="#F29B12"/>
<path fill-rule="evenodd" clip-rule="evenodd" d="M54.2537 36.4284C50.2722 34.6453 45.8505 34.2751 41.6434 35.3759L41.6046 35.3858L36.2941 35.7024L41.179 42.41C42.7384 44.5411 44.189 46.7463 45.7618 48.863C46.2313 49.4963 47.0376 50.5908 47.7651 50.9166L51.6552 42.2305C49.802 41.4005 47.7887 41.0276 45.7644 41.1478L45.5518 41.1618L42.6491 37.1771L43.2442 37.0616C46.6897 36.3941 50.2312 36.8101 53.4422 38.2482L54.2566 36.4297L54.2537 36.4284Z" fill="#F1AF10"/>
<path fill-rule="evenodd" clip-rule="evenodd" d="M33.7029 54.8799C33.4744 52.7411 33.7891 50.6715 34.5367 48.8026C29.9469 42.5034 29.7447 43.7535 32.5522 37.5231L37.8531 44.7991C39.4055 46.9305 41.0716 49.0003 42.5963 51.1397C43.097 51.8416 43.9078 52.9722 44.0031 53.8575C44.0968 54.7386 43.5419 56.0082 43.1977 56.7921C42.153 59.1863 40.9606 61.5416 39.8891 63.934L36.2319 72.1002L32.9039 67.1302C29.8727 64.108 27.8223 60.0786 27.3353 55.5145C27.0073 52.3998 27.4415 49.3877 28.4891 46.657L30.519 49.4423C30.0463 51.2808 29.8891 53.2367 30.103 55.2394C30.4791 58.7611 31.9422 61.9135 34.128 64.3968L35.8001 60.6632C34.6752 58.9825 33.9314 57.0188 33.7029 54.8799Z" fill="#E03136"/>
<path fill-rule="evenodd" clip-rule="evenodd" d="M27.725 55.474C28.1837 59.7866 30.0963 63.7782 33.1819 66.8555L33.2083 66.8809L36.1646 71.2989L39.5355 63.7721C40.6069 61.3797 41.793 59.0386 42.8415 56.6359C43.1565 55.9173 43.7002 54.6803 43.6163 53.8922L34.0914 54.8423C34.3069 56.8491 34.9981 58.7688 36.1246 60.4536L36.245 60.6303L34.242 65.1027L33.8409 64.6467C31.5164 62.0126 30.0876 58.7528 29.7191 55.2755L27.725 55.474Z" fill="#E7595B"/>
<path fill-rule="evenodd" clip-rule="evenodd" d="M54.172 64.0471C52.4241 65.3008 50.4639 66.0535 48.4609 66.3334C45.2936 73.4056 46.4837 72.9595 39.6406 73.6268L43.2979 65.4607C44.3693 63.0682 45.3313 60.6131 46.4231 58.2366C46.7817 57.4591 47.3565 56.1985 48.0763 55.6817C48.7961 55.1649 50.1836 55.0153 51.0406 54.9216C53.655 54.6358 56.3056 54.4993 58.9295 54.2383L67.8876 53.3482L65.2407 58.6749C64.1412 62.7809 61.6665 66.5405 57.9399 69.2175C55.3962 71.0427 52.5535 72.1609 49.6477 72.6061L51.0487 69.4777C52.8871 68.9741 54.6698 68.1419 56.3063 66.9679C59.1842 64.9035 61.1884 62.0793 62.2438 58.9702L58.1522 59.3755C57.2544 61.1805 55.92 62.7934 54.172 64.0471Z" fill="#1D656D"/>
<path fill-rule="evenodd" clip-rule="evenodd" d="M57.7122 68.904C61.2351 66.3745 63.7442 62.7531 64.8669 58.5723L64.8765 58.5356L67.2307 53.801L58.9708 54.6217C56.3469 54.8828 53.7074 55.0174 51.0861 55.3035C50.3016 55.3888 48.9517 55.5313 48.3079 55.9934L53.9456 63.7307C55.5863 62.5552 56.9055 61.0071 57.8033 59.2021L57.8984 59.0128L62.8041 58.5251L62.6113 59.0937C61.4891 62.3981 59.3735 65.2406 56.5338 67.2812L57.7122 68.904Z" fill="#237780"/>
</g>
<path d="M119.071 50.2989C119.071 50.752 119.063 51.3692 119.048 52.1505C119.032 52.9161 119.024 53.4708 119.024 53.8145C119.024 55.7051 119.063 57.1505 119.142 58.1505C119.235 59.1348 119.368 59.7442 119.54 59.9786C119.649 60.1348 120.173 60.4551 121.11 60.9395C122.063 61.4083 122.54 62.0567 122.54 62.8848C122.54 63.8067 122.001 64.4551 120.923 64.8301C119.845 65.1895 117.806 65.3692 114.806 65.3692C111.712 65.3692 109.634 65.1895 108.571 64.8301C107.509 64.4708 106.978 63.8223 106.978 62.8848C106.978 62.0567 107.446 61.4083 108.384 60.9395C109.321 60.4551 109.845 60.1426 109.954 60.002C110.188 59.6739 110.368 58.3223 110.493 55.9473C110.618 53.5567 110.681 50.3458 110.681 46.3145C110.681 43.127 110.618 40.5723 110.493 38.6505C110.368 36.7286 110.188 35.6036 109.954 35.2755C109.845 35.1192 109.321 34.8067 108.384 34.338C107.446 33.8692 106.978 33.2208 106.978 32.3926C106.978 31.6426 107.306 31.0723 107.962 30.6817C108.618 30.2911 109.587 30.0958 110.868 30.0958C111.696 30.0958 112.688 30.1114 113.845 30.1426C115.017 30.1739 115.767 30.1895 116.095 30.1895C117.298 30.1895 118.915 30.1426 120.946 30.0489C122.993 29.9551 124.431 29.9083 125.259 29.9083C129.243 29.9083 132.212 30.713 134.165 32.3223C136.134 33.9161 137.118 36.338 137.118 39.588C137.118 43.1036 136.001 45.8145 133.767 47.7208C131.532 49.627 128.345 50.5801 124.204 50.5801C123.423 50.5801 122.61 50.5567 121.767 50.5098C120.923 50.463 120.024 50.3926 119.071 50.2989ZM119.071 43.5255V45.5411C119.306 45.5723 119.548 45.588 119.798 45.588C120.048 45.588 120.431 45.588 120.946 45.588C123.759 45.588 125.759 45.1426 126.946 44.252C128.134 43.3614 128.728 41.877 128.728 39.7989C128.728 37.9864 128.188 36.627 127.11 35.7208C126.048 34.8145 124.454 34.3614 122.329 34.3614C121.392 34.3614 120.712 34.4551 120.29 34.6426C119.884 34.8301 119.587 35.1505 119.399 35.6036C119.274 35.963 119.188 36.6036 119.142 37.5255C119.095 38.4473 119.071 40.4473 119.071 43.5255ZM141.454 55.4317C141.454 52.6661 141.353 50.5723 141.149 49.1505C140.962 47.713 140.673 46.838 140.282 46.5255C140.22 46.4786 139.751 46.3223 138.876 46.0567C138.001 45.7755 137.563 45.252 137.563 44.4864C137.563 44.1114 137.72 43.7598 138.032 43.4317C138.36 43.088 138.845 42.7676 139.485 42.4708C140.923 41.8145 142.368 41.2911 143.821 40.9005C145.29 40.5098 146.517 40.3145 147.501 40.3145C148.001 40.3145 148.384 40.4161 148.649 40.6192C148.915 40.8067 149.095 41.1192 149.188 41.5567C149.298 42.0098 149.368 42.5645 149.399 43.2208C149.446 43.877 149.571 44.2051 149.774 44.2051C150.024 44.2051 150.368 43.9239 150.806 43.3614C150.931 43.1895 151.032 43.0567 151.11 42.963C151.86 42.0255 152.579 41.3536 153.267 40.9473C153.97 40.5255 154.72 40.3145 155.517 40.3145C156.704 40.3145 157.657 40.7364 158.376 41.5801C159.095 42.4239 159.454 43.5411 159.454 44.9317C159.454 46.1817 159.103 47.2208 158.399 48.0489C157.712 48.877 156.853 49.2911 155.821 49.2911C154.962 49.2911 154.087 48.9083 153.196 48.1426C152.306 47.377 151.673 46.9942 151.298 46.9942C150.61 46.9942 150.134 47.5098 149.868 48.5411C149.603 49.5567 149.47 51.7286 149.47 55.0567C149.47 57.2755 149.509 58.713 149.587 59.3692C149.665 60.0098 149.806 60.4473 150.009 60.6817C150.118 60.8067 150.626 61.0645 151.532 61.4551C152.438 61.8458 152.892 62.4161 152.892 63.1661C152.892 63.9942 152.36 64.5801 151.298 64.9239C150.251 65.252 148.313 65.4161 145.485 65.4161C142.813 65.4161 140.985 65.252 140.001 64.9239C139.017 64.5801 138.524 63.9942 138.524 63.1661C138.524 62.4317 139.024 61.8301 140.024 61.3614C140.415 61.1739 140.681 61.0255 140.821 60.9161C141.056 60.7442 141.22 60.3536 141.313 59.7442C141.407 59.1192 141.454 57.6817 141.454 55.4317ZM161.353 33.7051C161.353 32.5645 161.884 31.588 162.946 30.7755C164.009 29.963 165.298 29.5567 166.813 29.5567C168.22 29.5567 169.384 29.9239 170.306 30.6583C171.243 31.377 171.712 32.2755 171.712 33.3536C171.712 34.463 171.196 35.4083 170.165 36.1895C169.134 36.9551 167.86 37.338 166.345 37.338C164.876 37.338 163.673 36.9942 162.735 36.3067C161.813 35.6192 161.353 34.752 161.353 33.7051ZM171.173 49.7364V55.7364C171.173 57.6739 171.22 58.9708 171.313 59.627C171.407 60.2833 171.571 60.713 171.806 60.9161C171.962 61.0255 172.235 61.1739 172.626 61.3614C173.61 61.8301 174.103 62.4317 174.103 63.1661C174.103 63.9942 173.603 64.5801 172.603 64.9239C171.603 65.252 169.782 65.4161 167.142 65.4161C164.532 65.4161 162.728 65.252 161.728 64.9239C160.743 64.5801 160.251 63.9942 160.251 63.1661C160.251 62.4317 160.735 61.8301 161.704 61.3614C162.079 61.1739 162.345 61.0255 162.501 60.9161C162.751 60.6973 162.923 60.213 163.017 59.463C163.11 58.713 163.157 57.213 163.157 54.963C163.157 51.4473 163.095 49.2286 162.97 48.3067C162.845 47.3692 162.618 46.7676 162.29 46.502C162.228 46.4551 161.767 46.2989 160.907 46.0333C160.048 45.7676 159.618 45.252 159.618 44.4864C159.618 44.1114 159.774 43.7598 160.087 43.4317C160.415 43.088 160.899 42.7676 161.54 42.4708C162.993 41.7989 164.431 41.2755 165.853 40.9005C167.274 40.5098 168.493 40.3145 169.509 40.3145C170.212 40.3145 170.673 40.4551 170.892 40.7364C171.126 41.0176 171.243 41.6426 171.243 42.6114C171.243 42.752 171.235 43.0958 171.22 43.6426C171.188 45.7989 171.173 47.8301 171.173 49.7364ZM186.735 42.0489V43.5255C186.735 43.7442 186.759 43.9161 186.806 44.0411C186.853 44.1505 186.923 44.2051 187.017 44.2051C187.267 44.2051 187.563 43.9786 187.907 43.5255C188.11 43.2598 188.267 43.0645 188.376 42.9395C189.204 42.0176 190.11 41.3536 191.095 40.9473C192.095 40.5255 193.298 40.3145 194.704 40.3145C197.845 40.3145 200.11 41.1895 201.501 42.9395C202.892 44.6895 203.587 47.5567 203.587 51.5411V55.6192C203.587 57.4317 203.618 58.6817 203.681 59.3692C203.743 60.0411 203.853 60.4786 204.009 60.6817C204.103 60.7911 204.54 61.0645 205.321 61.502C206.118 61.9239 206.517 62.4786 206.517 63.1661C206.517 63.9942 206.017 64.5801 205.017 64.9239C204.032 65.252 202.228 65.4161 199.603 65.4161C196.962 65.4161 195.142 65.252 194.142 64.9239C193.142 64.5801 192.642 63.9942 192.642 63.1661C192.642 62.4317 193.142 61.8301 194.142 61.3614C194.532 61.1739 194.798 61.0255 194.938 60.9161C195.173 60.713 195.337 60.2833 195.431 59.627C195.524 58.9551 195.571 57.6426 195.571 55.6895C195.571 51.6426 195.282 49.0489 194.704 47.9083C194.126 46.752 193.071 46.1739 191.54 46.1739C189.868 46.1739 188.649 46.877 187.884 48.2833C187.118 49.6895 186.735 51.9473 186.735 55.0567C186.735 56.8848 186.767 58.2208 186.829 59.0645C186.907 59.8926 187.032 60.4239 187.204 60.6583C187.298 60.7833 187.728 61.0645 188.493 61.502C189.274 61.9239 189.665 62.4786 189.665 63.1661C189.665 63.9942 189.165 64.5801 188.165 64.9239C187.181 65.252 185.376 65.4161 182.751 65.4161C180.126 65.4161 178.306 65.252 177.29 64.9239C176.29 64.5801 175.79 63.9942 175.79 63.1661C175.79 62.4317 176.29 61.8301 177.29 61.3614C177.681 61.1739 177.946 61.0255 178.087 60.9161C178.337 60.713 178.509 60.2364 178.603 59.4864C178.712 58.7364 178.767 56.9708 178.767 54.1895C178.767 51.1895 178.704 49.2208 178.579 48.2833C178.454 47.3458 178.235 46.7598 177.923 46.5255C177.86 46.4786 177.392 46.3223 176.517 46.0567C175.642 45.7755 175.204 45.252 175.204 44.4864C175.204 44.1114 175.36 43.7598 175.673 43.4317C176.001 43.088 176.485 42.7676 177.126 42.4708C178.563 41.7989 179.993 41.2755 181.415 40.9005C182.853 40.5098 184.079 40.3145 185.095 40.3145C185.72 40.3145 186.149 40.4395 186.384 40.6895C186.618 40.9239 186.735 41.377 186.735 42.0489ZM210.595 57.1192L210.688 44.5333H207.806C207.399 44.5333 207.126 44.4473 206.985 44.2755C206.86 44.1036 206.798 43.5723 206.798 42.6817C206.798 41.9161 207.368 41.1192 208.509 40.2911C208.743 40.1192 208.931 39.9864 209.071 39.8926C209.446 39.5958 209.985 39.1817 210.688 38.6505C213.907 36.213 216.04 34.9942 217.087 34.9942C217.696 34.9942 218.087 35.0801 218.259 35.252C218.431 35.4083 218.517 35.9005 218.517 36.7286V37.0098V40.713H224.47C224.97 40.713 225.29 40.7833 225.431 40.9239C225.587 41.0489 225.665 41.3301 225.665 41.7676C225.665 43.0176 225.587 43.7833 225.431 44.0645C225.274 44.3458 224.829 44.4864 224.095 44.4864H218.517V55.8301C218.517 57.8458 218.696 59.213 219.056 59.9317C219.431 60.6505 220.079 61.0098 221.001 61.0098C221.61 61.0098 222.368 60.8145 223.274 60.4239C224.181 60.0176 224.806 59.8145 225.149 59.8145C225.524 59.8145 225.845 59.9551 226.11 60.2364C226.392 60.502 226.532 60.838 226.532 61.2442C226.532 62.3692 225.696 63.4239 224.024 64.4083C222.353 65.377 220.423 65.8614 218.235 65.8614C215.548 65.8614 213.603 65.1973 212.399 63.8692C211.196 62.5255 210.595 60.338 210.595 57.3067V57.1192ZM253.79 50.2989C253.79 50.752 253.782 51.3692 253.767 52.1505C253.751 52.9161 253.743 53.4708 253.743 53.8145C253.743 55.7051 253.782 57.1505 253.86 58.1505C253.954 59.1348 254.087 59.7442 254.259 59.9786C254.368 60.1348 254.892 60.4551 255.829 60.9395C256.782 61.4083 257.259 62.0567 257.259 62.8848C257.259 63.8067 256.72 64.4551 255.642 64.8301C254.563 65.1895 252.524 65.3692 249.524 65.3692C246.431 65.3692 244.353 65.1895 243.29 64.8301C242.228 64.4708 241.696 63.8223 241.696 62.8848C241.696 62.0567 242.165 61.4083 243.103 60.9395C244.04 60.4551 244.563 60.1426 244.673 60.002C244.907 59.6739 245.087 58.3223 245.212 55.9473C245.337 53.5567 245.399 50.3458 245.399 46.3145C245.399 43.127 245.337 40.5723 245.212 38.6505C245.087 36.7286 244.907 35.6036 244.673 35.2755C244.563 35.1192 244.04 34.8067 243.103 34.338C242.165 33.8692 241.696 33.2208 241.696 32.3926C241.696 31.6426 242.024 31.0723 242.681 30.6817C243.337 30.2911 244.306 30.0958 245.587 30.0958C246.415 30.0958 247.407 30.1114 248.563 30.1426C249.735 30.1739 250.485 30.1895 250.813 30.1895C252.017 30.1895 253.634 30.1426 255.665 30.0489C257.712 29.9551 259.149 29.9083 259.978 29.9083C263.962 29.9083 266.931 30.713 268.884 32.3223C270.853 33.9161 271.837 36.338 271.837 39.588C271.837 43.1036 270.72 45.8145 268.485 47.7208C266.251 49.627 263.063 50.5801 258.923 50.5801C258.142 50.5801 257.329 50.5567 256.485 50.5098C255.642 50.463 254.743 50.3926 253.79 50.2989ZM253.79 43.5255V45.5411C254.024 45.5723 254.267 45.588 254.517 45.588C254.767 45.588 255.149 45.588 255.665 45.588C258.478 45.588 260.478 45.1426 261.665 44.252C262.853 43.3614 263.446 41.877 263.446 39.7989C263.446 37.9864 262.907 36.627 261.829 35.7208C260.767 34.8145 259.173 34.3614 257.048 34.3614C256.11 34.3614 255.431 34.4551 255.009 34.6426C254.603 34.8301 254.306 35.1505 254.118 35.6036C253.993 35.963 253.907 36.6036 253.86 37.5255C253.813 38.4473 253.79 40.4473 253.79 43.5255ZM286.063 50.4864V48.2364C286.063 46.6895 285.868 45.627 285.478 45.0489C285.103 44.4551 284.438 44.1583 283.485 44.1583C282.47 44.1583 281.353 44.752 280.134 45.9395C280.024 46.0489 279.938 46.127 279.876 46.1739C279.813 46.2208 279.728 46.2989 279.618 46.4083C277.946 47.9864 276.462 48.7755 275.165 48.7755C274.337 48.7755 273.681 48.5489 273.196 48.0958C272.728 47.6426 272.493 47.0176 272.493 46.2208C272.493 44.5489 273.634 43.088 275.915 41.838C278.196 40.5723 281.009 39.9395 284.353 39.9395C287.712 39.9395 290.165 40.588 291.712 41.8848C293.259 43.1661 294.032 45.2051 294.032 48.002C294.032 48.8458 294.001 49.9161 293.938 51.213C293.876 52.5098 293.845 53.3926 293.845 53.8614V57.3536C293.845 58.0411 293.884 58.5411 293.962 58.8536C294.04 59.1661 294.181 59.3848 294.384 59.5098C294.556 59.6348 295.063 59.838 295.907 60.1192C296.767 60.3848 297.196 60.8067 297.196 61.3848C297.196 61.963 296.985 62.5098 296.563 63.0255C296.157 63.5411 295.524 64.0489 294.665 64.5489C293.962 64.9551 293.251 65.2676 292.532 65.4864C291.829 65.7051 291.181 65.8145 290.587 65.8145C289.712 65.8145 288.845 65.3692 287.985 64.4786C287.126 63.5723 286.649 63.1192 286.556 63.1192C286.478 63.1192 286.259 63.252 285.899 63.5176C283.853 65.0489 281.657 65.8145 279.313 65.8145C276.767 65.8145 274.728 65.1348 273.196 63.7755C271.665 62.4005 270.899 60.5801 270.899 58.3145C270.899 55.752 271.876 53.7598 273.829 52.338C275.782 50.9161 278.517 50.2051 282.032 50.2051C282.595 50.2051 283.212 50.2286 283.884 50.2755C284.556 50.3223 285.282 50.3926 286.063 50.4864ZM286.017 57.7051V53.9551C285.72 53.877 285.415 53.8223 285.103 53.7911C284.79 53.7442 284.438 53.7208 284.048 53.7208C282.595 53.7208 281.478 54.0489 280.696 54.7051C279.931 55.3614 279.548 56.3067 279.548 57.5411C279.548 58.6036 279.829 59.4395 280.392 60.0489C280.97 60.6583 281.759 60.963 282.759 60.963C283.868 60.963 284.688 60.6973 285.22 60.1661C285.751 59.6348 286.017 58.8145 286.017 57.7051ZM298.04 53.2755C298.04 49.463 299.345 46.3067 301.954 43.8067C304.563 41.2911 307.853 40.0333 311.821 40.0333C314.634 40.0333 316.962 40.713 318.806 42.0723C320.649 43.4161 321.571 45.0723 321.571 47.0411C321.571 48.1817 321.212 49.1114 320.493 49.8301C319.79 50.5333 318.868 50.8848 317.728 50.8848C316.774 50.8848 315.985 50.6036 315.36 50.0411C314.751 49.4786 314.032 48.1895 313.204 46.1739C312.97 45.5489 312.571 45.0567 312.009 44.6973C311.462 44.338 310.837 44.1583 310.134 44.1583C308.915 44.1583 307.97 44.6583 307.298 45.6583C306.642 46.6426 306.313 48.0489 306.313 49.877C306.313 52.8458 306.993 55.2755 308.353 57.1661C309.728 59.0567 311.478 60.002 313.603 60.002C314.618 60.002 315.806 59.6817 317.165 59.0411C318.54 58.4005 319.415 58.0801 319.79 58.0801C320.274 58.0801 320.673 58.2286 320.985 58.5255C321.313 58.8223 321.478 59.2051 321.478 59.6739C321.478 60.1426 321.306 60.6505 320.962 61.1973C320.634 61.7286 320.181 62.2286 319.603 62.6973C318.228 63.7598 316.837 64.5489 315.431 65.0645C314.04 65.5645 312.532 65.8145 310.907 65.8145C307.095 65.8145 303.993 64.6583 301.603 62.3458C299.228 60.0176 298.04 56.9942 298.04 53.2755ZM333.923 43.5723V49.1036C333.923 49.4005 333.954 49.5958 334.017 49.6895C334.079 49.7833 334.188 49.8301 334.345 49.8301C334.47 49.8301 334.618 49.7676 334.79 49.6426C334.962 49.5176 335.267 49.2598 335.704 48.8692L338.681 46.127C339.103 45.7364 339.392 45.4239 339.548 45.1895C339.704 44.9551 339.782 44.7364 339.782 44.5333C339.782 44.2833 339.649 43.9317 339.384 43.4786C339.134 43.0255 339.009 42.6895 339.009 42.4708C339.009 41.8145 339.47 41.3301 340.392 41.0176C341.329 40.7051 342.79 40.5489 344.774 40.5489C346.587 40.5489 347.892 40.7286 348.688 41.088C349.501 41.4317 349.907 41.9942 349.907 42.7755C349.907 43.1505 349.813 43.463 349.626 43.713C349.454 43.963 349.228 44.1114 348.946 44.1583L346.931 44.4864C346.868 44.502 346.774 44.5176 346.649 44.5333C345.399 44.7208 344.196 45.3614 343.04 46.4551L341.798 47.6739C341.673 47.7833 341.517 47.9317 341.329 48.1192C340.938 48.4786 340.743 48.7286 340.743 48.8692C340.743 49.0567 340.923 49.4083 341.282 49.9239C341.657 50.4395 342.228 51.1426 342.993 52.0333C344.368 53.6426 345.681 55.1348 346.931 56.5098C348.181 57.8848 349.188 58.9551 349.954 59.7208C350.813 60.5333 351.813 61.088 352.954 61.3848C353.126 61.4317 353.243 61.463 353.306 61.4786C353.696 61.6348 353.993 61.838 354.196 62.088C354.415 62.338 354.524 62.6348 354.524 62.9786C354.524 63.8067 354.071 64.3848 353.165 64.713C352.259 65.0255 350.438 65.1817 347.704 65.1817H346.603C345.493 65.1817 344.673 65.0489 344.142 64.7833C343.61 64.5176 343.017 64.0098 342.36 63.2598C340.923 61.6192 339.298 59.6661 337.485 57.4005C335.673 55.1348 334.642 54.002 334.392 54.002C334.282 54.002 334.196 54.0567 334.134 54.1661C334.087 54.2755 334.063 54.4942 334.063 54.8223V56.7911C334.063 58.1817 334.11 59.1739 334.204 59.7676C334.298 60.3458 334.462 60.7286 334.696 60.9161C334.837 61.0255 335.103 61.1739 335.493 61.3614C336.493 61.8301 336.993 62.4317 336.993 63.1661C336.993 63.9942 336.493 64.5801 335.493 64.9239C334.493 65.252 332.673 65.4161 330.032 65.4161C327.407 65.4161 325.595 65.252 324.595 64.9239C323.61 64.5801 323.118 63.9942 323.118 63.1661C323.118 62.4786 323.509 61.9161 324.29 61.4786C325.071 61.0411 325.501 60.7676 325.579 60.6583C325.751 60.4083 325.868 59.7364 325.931 58.6426C326.009 57.5489 326.048 54.9473 326.048 50.838V45.4005C326.048 41.8223 326.001 39.4317 325.907 38.2286C325.829 37.0098 325.681 36.2598 325.462 35.9786C325.353 35.8223 324.829 35.6036 323.892 35.3223C322.97 35.0255 322.509 34.502 322.509 33.752C322.509 33.377 322.665 33.0333 322.978 32.7208C323.306 32.3926 323.806 32.0801 324.478 31.7833C325.962 31.0801 327.415 30.5333 328.837 30.1426C330.259 29.752 331.462 29.5567 332.446 29.5567C333.134 29.5567 333.587 29.7208 333.806 30.0489C334.04 30.377 334.157 31.0645 334.157 32.1114C334.157 32.4864 334.118 33.9473 334.04 36.4942C333.962 39.0411 333.923 41.4005 333.923 43.5723ZM390.313 30.1426C391.142 30.1426 392.001 30.0645 392.892 29.9083C393.798 29.752 394.282 29.6739 394.345 29.6739C395.079 29.6739 395.688 30.2989 396.173 31.5489C396.673 32.7833 396.923 34.3458 396.923 36.2364C396.923 37.0489 396.767 37.6661 396.454 38.088C396.157 38.4942 395.712 38.6973 395.118 38.6973C394.493 38.6973 393.868 38.252 393.243 37.3614C392.634 36.4708 392.22 35.9395 392.001 35.7676C391.392 35.2833 390.563 34.9395 389.517 34.7364C388.485 34.5176 387.056 34.4083 385.228 34.4083C383.118 34.4083 381.751 34.4864 381.126 34.6426C380.517 34.7833 380.157 35.0411 380.048 35.4161C379.907 35.8223 379.798 36.6973 379.72 38.0411C379.642 39.3692 379.603 41.0255 379.603 43.0098C379.603 44.1036 380.517 44.6505 382.345 44.6505C384.282 44.6505 385.517 44.5176 386.048 44.252C386.595 43.9708 386.978 43.4083 387.196 42.5645C387.259 42.2989 387.313 41.9239 387.36 41.4395C387.532 40.0176 388.118 39.3067 389.118 39.3067C389.993 39.3067 390.61 39.838 390.97 40.9005C391.329 41.963 391.509 43.8301 391.509 46.502C391.509 49.502 391.321 51.5255 390.946 52.5723C390.587 53.6192 389.931 54.1426 388.978 54.1426C388.071 54.1426 387.548 53.4864 387.407 52.1739C387.345 51.6114 387.274 51.1817 387.196 50.8848C386.978 50.0411 386.595 49.4864 386.048 49.2208C385.517 48.9551 384.298 48.8223 382.392 48.8223H382.11C380.892 48.8223 380.165 48.9083 379.931 49.0801C379.712 49.2364 379.603 49.7208 379.603 50.5333V51.5411C379.603 53.7286 379.642 55.4395 379.72 56.6739C379.813 57.8926 379.954 58.7286 380.142 59.1817C380.36 59.7286 380.837 60.127 381.571 60.377C382.321 60.6114 383.478 60.7286 385.04 60.7286C387.462 60.7286 389.29 60.5645 390.524 60.2364C391.759 59.9083 392.681 59.3614 393.29 58.5958C393.681 58.0958 394.149 57.2051 394.696 55.9239C395.243 54.6426 395.892 54.002 396.642 54.002C397.22 54.002 397.657 54.2442 397.954 54.7286C398.267 55.1973 398.423 55.8848 398.423 56.7911C398.423 59.1661 398.103 61.252 397.462 63.0489C396.821 64.8301 396.134 65.7208 395.399 65.7208C395.321 65.7208 395.118 65.6739 394.79 65.5801C393.712 65.2833 392.634 65.1348 391.556 65.1348H374.517C371.329 65.1348 369.345 64.9786 368.563 64.6661C367.798 64.338 367.415 63.7442 367.415 62.8848C367.415 62.0567 367.876 61.4083 368.798 60.9395C369.72 60.4551 370.235 60.1426 370.345 60.002C370.563 59.6739 370.735 58.3223 370.86 55.9473C371.001 53.5567 371.071 50.3458 371.071 46.3145C371.071 43.127 371.009 40.5723 370.884 38.6505C370.759 36.7286 370.579 35.6036 370.345 35.2755C370.235 35.1192 369.72 34.8067 368.798 34.338C367.876 33.8692 367.415 33.2208 367.415 32.3926C367.415 31.5333 367.798 30.9473 368.563 30.6348C369.345 30.3067 371.423 30.1426 374.798 30.1426H390.313ZM414.829 48.0958C414.86 48.0958 414.899 48.1036 414.946 48.1192C414.993 48.1348 415.017 48.1426 415.017 48.1426C415.048 48.1426 415.087 48.1192 415.134 48.0723C415.306 47.8536 415.548 47.5489 415.86 47.1583C417.063 45.6426 417.665 44.7364 417.665 44.4395C417.665 44.377 417.524 44.1895 417.243 43.877C416.978 43.5489 416.845 43.1817 416.845 42.7755C416.845 41.9942 417.282 41.4317 418.157 41.088C419.032 40.7286 420.454 40.5489 422.423 40.5489C423.892 40.5489 424.978 40.7208 425.681 41.0645C426.384 41.3926 426.735 41.8926 426.735 42.5645C426.735 43.3301 426.009 43.9864 424.556 44.5333C423.821 44.8145 423.235 45.0567 422.798 45.2598C422.079 45.6036 421.321 46.1895 420.524 47.0176C419.743 47.8458 418.696 49.1817 417.384 51.0255C417.368 51.0411 417.353 51.0567 417.337 51.0723C417.337 51.088 417.337 51.1192 417.337 51.1661C417.337 51.213 417.337 51.252 417.337 51.2833C417.353 51.3145 417.368 51.338 417.384 51.3536C418.821 53.463 420.149 55.3301 421.368 56.9551C422.603 58.5645 423.493 59.6426 424.04 60.1895C424.321 60.4708 424.938 60.8301 425.892 61.2676C426.845 61.6895 427.321 62.2755 427.321 63.0255C427.321 63.8067 426.774 64.377 425.681 64.7364C424.587 65.0958 422.829 65.2755 420.407 65.2755C417.72 65.2755 415.884 65.1114 414.899 64.7833C413.931 64.4395 413.446 63.8536 413.446 63.0255C413.446 62.6661 413.665 62.3301 414.103 62.0176C414.556 61.6895 414.782 61.4942 414.782 61.4317C414.782 61.1505 414.478 60.5645 413.868 59.6739C413.274 58.7676 412.329 57.502 411.032 55.877H410.845C409.61 57.4551 408.696 58.6739 408.103 59.5333C407.509 60.3926 407.212 60.9317 407.212 61.1505C407.212 61.3848 407.353 61.6973 407.634 62.088C407.915 62.4786 408.056 62.8067 408.056 63.0723C408.056 63.8536 407.665 64.4161 406.884 64.7598C406.103 65.1036 404.813 65.2755 403.017 65.2755C401.345 65.2755 400.181 65.1348 399.524 64.8536C398.884 64.5723 398.563 64.088 398.563 63.4005C398.563 62.5723 399.267 61.9239 400.673 61.4551C401.454 61.1895 402.017 60.9473 402.36 60.7286C402.985 60.3067 403.813 59.4473 404.845 58.1505C405.892 56.838 407.126 55.088 408.548 52.9005C408.563 52.8848 408.571 52.8692 408.571 52.8536C408.587 52.8223 408.595 52.7911 408.595 52.7598C408.595 52.6973 408.587 52.6505 408.571 52.6192C408.571 52.588 408.563 52.5645 408.548 52.5489C406.626 49.8614 405.251 48.002 404.423 46.9708C403.595 45.9239 402.97 45.2755 402.548 45.0255C402.36 44.9161 402.017 44.7911 401.517 44.6505C400.313 44.338 399.712 43.7598 399.712 42.9161C399.712 42.0411 400.235 41.4239 401.282 41.0645C402.329 40.6895 404.173 40.502 406.813 40.502C409.063 40.502 410.657 40.6817 411.595 41.0411C412.532 41.3848 413.001 41.963 413.001 42.7755C413.001 43.0255 412.868 43.3223 412.603 43.6661C412.337 44.0098 412.204 44.2208 412.204 44.2989C412.204 44.502 412.407 44.9005 412.813 45.4942C413.22 46.0723 413.892 46.9395 414.829 48.0958ZM426.712 53.2755C426.712 49.463 428.017 46.3067 430.626 43.8067C433.235 41.2911 436.524 40.0333 440.493 40.0333C443.306 40.0333 445.634 40.713 447.478 42.0723C449.321 43.4161 450.243 45.0723 450.243 47.0411C450.243 48.1817 449.884 49.1114 449.165 49.8301C448.462 50.5333 447.54 50.8848 446.399 50.8848C445.446 50.8848 444.657 50.6036 444.032 50.0411C443.423 49.4786 442.704 48.1895 441.876 46.1739C441.642 45.5489 441.243 45.0567 440.681 44.6973C440.134 44.338 439.509 44.1583 438.806 44.1583C437.587 44.1583 436.642 44.6583 435.97 45.6583C435.313 46.6426 434.985 48.0489 434.985 49.877C434.985 52.8458 435.665 55.2755 437.024 57.1661C438.399 59.0567 440.149 60.002 442.274 60.002C443.29 60.002 444.478 59.6817 445.837 59.0411C447.212 58.4005 448.087 58.0801 448.462 58.0801C448.946 58.0801 449.345 58.2286 449.657 58.5255C449.985 58.8223 450.149 59.2051 450.149 59.6739C450.149 60.1426 449.978 60.6505 449.634 61.1973C449.306 61.7286 448.853 62.2286 448.274 62.6973C446.899 63.7598 445.509 64.5489 444.103 65.0645C442.712 65.5645 441.204 65.8145 439.579 65.8145C435.767 65.8145 432.665 64.6583 430.274 62.3458C427.899 60.0176 426.712 56.9942 426.712 53.2755ZM462.313 43.5255C462.313 43.7442 462.337 43.9161 462.384 44.0411C462.431 44.1505 462.501 44.2051 462.595 44.2051C462.845 44.2051 463.142 43.9708 463.485 43.502C463.673 43.2676 463.829 43.0801 463.954 42.9395C464.813 41.9864 465.735 41.2989 466.72 40.877C467.704 40.4395 468.876 40.2208 470.235 40.2208C473.36 40.2208 475.618 41.1114 477.009 42.8926C478.415 44.6583 479.118 47.5411 479.118 51.5411V55.6192C479.118 57.4317 479.149 58.6817 479.212 59.3692C479.274 60.0411 479.384 60.4786 479.54 60.6817C479.618 60.7911 480.048 61.0645 480.829 61.502C481.626 61.9239 482.024 62.4786 482.024 63.1661C482.024 63.9942 481.524 64.5801 480.524 64.9239C479.54 65.252 477.743 65.4161 475.134 65.4161C472.493 65.4161 470.673 65.252 469.673 64.9239C468.673 64.5801 468.173 63.9942 468.173 63.1661C468.173 62.4317 468.665 61.8301 469.649 61.3614C470.04 61.1739 470.313 61.0255 470.47 60.9161C470.704 60.713 470.86 60.2833 470.938 59.627C471.032 58.9551 471.079 57.6426 471.079 55.6895C471.079 51.6895 470.79 49.1036 470.212 47.9317C469.634 46.7598 468.579 46.1739 467.048 46.1739C465.376 46.1739 464.157 46.8692 463.392 48.2598C462.642 49.6505 462.267 51.9005 462.267 55.0098C462.267 56.8536 462.298 58.1973 462.36 59.0411C462.438 59.8848 462.563 60.4239 462.735 60.6583C462.829 60.7833 463.259 61.0645 464.024 61.502C464.806 61.9239 465.196 62.4786 465.196 63.1661C465.196 63.9942 464.696 64.5801 463.696 64.9239C462.696 65.252 460.892 65.4161 458.282 65.4161C455.657 65.4161 453.845 65.252 452.845 64.9239C451.86 64.5801 451.368 63.9942 451.368 63.1661C451.368 62.4317 451.853 61.8301 452.821 61.3614C453.196 61.1739 453.462 61.0255 453.618 60.9161C453.915 60.6817 454.118 59.8223 454.228 58.338C454.337 56.838 454.392 53.1505 454.392 47.2755C454.392 42.6348 454.321 39.627 454.181 38.252C454.04 36.8614 453.782 36.0255 453.407 35.7442C453.345 35.6973 452.884 35.5489 452.024 35.2989C451.165 35.0333 450.735 34.5176 450.735 33.752C450.735 33.2989 450.931 32.9005 451.321 32.5567C451.712 32.213 452.478 31.8067 453.618 31.338C454.993 30.7598 456.29 30.3223 457.509 30.0255C458.728 29.713 459.798 29.5567 460.72 29.5567C461.423 29.5567 461.892 29.713 462.126 30.0255C462.376 30.338 462.501 30.9864 462.501 31.9708C462.501 32.7833 462.47 34.2911 462.407 36.4942C462.345 38.6973 462.313 40.4864 462.313 41.8614V43.5255ZM498.642 50.4864V48.2364C498.642 46.6895 498.446 45.627 498.056 45.0489C497.681 44.4551 497.017 44.1583 496.063 44.1583C495.048 44.1583 493.931 44.752 492.712 45.9395C492.603 46.0489 492.517 46.127 492.454 46.1739C492.392 46.2208 492.306 46.2989 492.196 46.4083C490.524 47.9864 489.04 48.7755 487.743 48.7755C486.915 48.7755 486.259 48.5489 485.774 48.0958C485.306 47.6426 485.071 47.0176 485.071 46.2208C485.071 44.5489 486.212 43.088 488.493 41.838C490.774 40.5723 493.587 39.9395 496.931 39.9395C500.29 39.9395 502.743 40.588 504.29 41.8848C505.837 43.1661 506.61 45.2051 506.61 48.002C506.61 48.8458 506.579 49.9161 506.517 51.213C506.454 52.5098 506.423 53.3926 506.423 53.8614V57.3536C506.423 58.0411 506.462 58.5411 506.54 58.8536C506.618 59.1661 506.759 59.3848 506.962 59.5098C507.134 59.6348 507.642 59.838 508.485 60.1192C509.345 60.3848 509.774 60.8067 509.774 61.3848C509.774 61.963 509.563 62.5098 509.142 63.0255C508.735 63.5411 508.103 64.0489 507.243 64.5489C506.54 64.9551 505.829 65.2676 505.11 65.4864C504.407 65.7051 503.759 65.8145 503.165 65.8145C502.29 65.8145 501.423 65.3692 500.563 64.4786C499.704 63.5723 499.228 63.1192 499.134 63.1192C499.056 63.1192 498.837 63.252 498.478 63.5176C496.431 65.0489 494.235 65.8145 491.892 65.8145C489.345 65.8145 487.306 65.1348 485.774 63.7755C484.243 62.4005 483.478 60.5801 483.478 58.3145C483.478 55.752 484.454 53.7598 486.407 52.338C488.36 50.9161 491.095 50.2051 494.61 50.2051C495.173 50.2051 495.79 50.2286 496.462 50.2755C497.134 50.3223 497.86 50.3926 498.642 50.4864ZM498.595 57.7051V53.9551C498.298 53.877 497.993 53.8223 497.681 53.7911C497.368 53.7442 497.017 53.7208 496.626 53.7208C495.173 53.7208 494.056 54.0489 493.274 54.7051C492.509 55.3614 492.126 56.3067 492.126 57.5411C492.126 58.6036 492.407 59.4395 492.97 60.0489C493.548 60.6583 494.337 60.963 495.337 60.963C496.446 60.963 497.267 60.6973 497.798 60.1661C498.329 59.6348 498.595 58.8145 498.595 57.7051ZM521.376 42.0489V43.5255C521.376 43.7442 521.399 43.9161 521.446 44.0411C521.493 44.1505 521.563 44.2051 521.657 44.2051C521.907 44.2051 522.204 43.9786 522.548 43.5255C522.751 43.2598 522.907 43.0645 523.017 42.9395C523.845 42.0176 524.751 41.3536 525.735 40.9473C526.735 40.5255 527.938 40.3145 529.345 40.3145C532.485 40.3145 534.751 41.1895 536.142 42.9395C537.532 44.6895 538.228 47.5567 538.228 51.5411V55.6192C538.228 57.4317 538.259 58.6817 538.321 59.3692C538.384 60.0411 538.493 60.4786 538.649 60.6817C538.743 60.7911 539.181 61.0645 539.962 61.502C540.759 61.9239 541.157 62.4786 541.157 63.1661C541.157 63.9942 540.657 64.5801 539.657 64.9239C538.673 65.252 536.868 65.4161 534.243 65.4161C531.603 65.4161 529.782 65.252 528.782 64.9239C527.782 64.5801 527.282 63.9942 527.282 63.1661C527.282 62.4317 527.782 61.8301 528.782 61.3614C529.173 61.1739 529.438 61.0255 529.579 60.9161C529.813 60.713 529.978 60.2833 530.071 59.627C530.165 58.9551 530.212 57.6426 530.212 55.6895C530.212 51.6426 529.923 49.0489 529.345 47.9083C528.767 46.752 527.712 46.1739 526.181 46.1739C524.509 46.1739 523.29 46.877 522.524 48.2833C521.759 49.6895 521.376 51.9473 521.376 55.0567C521.376 56.8848 521.407 58.2208 521.47 59.0645C521.548 59.8926 521.673 60.4239 521.845 60.6583C521.938 60.7833 522.368 61.0645 523.134 61.502C523.915 61.9239 524.306 62.4786 524.306 63.1661C524.306 63.9942 523.806 64.5801 522.806 64.9239C521.821 65.252 520.017 65.4161 517.392 65.4161C514.767 65.4161 512.946 65.252 511.931 64.9239C510.931 64.5801 510.431 63.9942 510.431 63.1661C510.431 62.4317 510.931 61.8301 511.931 61.3614C512.321 61.1739 512.587 61.0255 512.728 60.9161C512.978 60.713 513.149 60.2364 513.243 59.4864C513.353 58.7364 513.407 56.9708 513.407 54.1895C513.407 51.1895 513.345 49.2208 513.22 48.2833C513.095 47.3458 512.876 46.7598 512.563 46.5255C512.501 46.4786 512.032 46.3223 511.157 46.0567C510.282 45.7755 509.845 45.252 509.845 44.4864C509.845 44.1114 510.001 43.7598 510.313 43.4317C510.642 43.088 511.126 42.7676 511.767 42.4708C513.204 41.7989 514.634 41.2755 516.056 40.9005C517.493 40.5098 518.72 40.3145 519.735 40.3145C520.36 40.3145 520.79 40.4395 521.024 40.6895C521.259 40.9239 521.376 41.377 521.376 42.0489ZM548.751 65.7208C548.61 66.0176 548.517 66.2442 548.47 66.4005C548.423 66.5567 548.399 66.6973 548.399 66.8223C548.399 67.9786 548.962 68.9317 550.087 69.6817C551.212 70.4317 552.681 70.8067 554.493 70.8067C556.431 70.8067 557.938 70.5176 559.017 69.9395C560.095 69.3614 560.634 68.5567 560.634 67.5255C560.634 66.8536 560.438 66.3536 560.048 66.0255C559.657 65.713 559.056 65.5567 558.243 65.5567C557.993 65.5567 557.22 65.627 555.923 65.7676C554.626 65.9239 553.446 66.002 552.384 66.002C551.821 66.002 551.235 65.9786 550.626 65.9317C550.017 65.8848 549.392 65.8145 548.751 65.7208ZM554.353 54.4708C555.524 54.4708 556.438 54.0645 557.095 53.252C557.767 52.4239 558.103 51.2833 558.103 49.8301C558.103 48.1426 557.704 46.7364 556.907 45.6114C556.126 44.4864 555.165 43.9239 554.024 43.9239C552.946 43.9239 552.063 44.3458 551.376 45.1895C550.704 46.0176 550.368 47.1114 550.368 48.4708C550.368 50.2208 550.743 51.6583 551.493 52.7833C552.259 53.9083 553.212 54.4708 554.353 54.4708ZM545.329 64.3145C544.423 63.877 543.743 63.3536 543.29 62.7442C542.853 62.1348 542.634 61.4239 542.634 60.6114C542.634 59.6583 542.938 58.8067 543.548 58.0567C544.173 57.2911 545.087 56.6583 546.29 56.1583C545.446 55.4551 544.79 54.5489 544.321 53.4395C543.868 52.3301 543.642 51.0958 543.642 49.7364C543.642 46.8145 544.642 44.4942 546.642 42.7755C548.657 41.0411 551.376 40.1739 554.798 40.1739C556.157 40.1739 557.54 40.3848 558.946 40.8067C560.353 41.213 561.095 41.4161 561.173 41.4161C561.876 41.4161 562.673 41.213 563.563 40.8067C564.47 40.4005 565.337 39.838 566.165 39.1192C566.571 39.338 566.868 39.6114 567.056 39.9395C567.259 40.2676 567.36 40.6661 567.36 41.1348C567.36 41.9005 567.095 42.6192 566.563 43.2911C566.032 43.9473 565.212 44.5723 564.103 45.1661C564.384 45.713 564.595 46.2911 564.735 46.9005C564.892 47.4942 564.97 48.1192 564.97 48.7755C564.97 51.6036 563.892 53.9395 561.735 55.7833C559.595 57.627 556.845 58.5489 553.485 58.5489C552.47 58.5489 551.563 58.4708 550.767 58.3145C549.985 58.1426 549.274 57.8848 548.634 57.5411C548.415 57.7755 548.251 58.002 548.142 58.2208C548.032 58.4395 547.978 58.6661 547.978 58.9005C547.978 59.588 548.345 60.0958 549.079 60.4239C549.829 60.752 550.993 60.9161 552.571 60.9161C553.54 60.9161 554.97 60.8145 556.86 60.6114C558.751 60.3926 560.157 60.2833 561.079 60.2833C563.267 60.2833 564.938 60.7598 566.095 61.713C567.267 62.6505 567.853 64.002 567.853 65.7676C567.853 68.377 566.532 70.5723 563.892 72.3536C561.267 74.1348 557.946 75.0255 553.931 75.0255C550.259 75.0255 547.368 74.4317 545.259 73.2442C543.165 72.0567 542.118 70.4551 542.118 68.4395C542.118 67.502 542.376 66.6973 542.892 66.0255C543.407 65.3692 544.22 64.7989 545.329 64.3145ZM590.212 53.3223H578.446C577.899 53.3223 577.556 53.377 577.415 53.4864C577.274 53.5958 577.204 53.7989 577.204 54.0958C577.204 55.752 577.813 57.1895 579.032 58.4083C580.267 59.627 581.767 60.2364 583.532 60.2364C584.845 60.2364 586.228 59.8926 587.681 59.2051C589.134 58.5176 589.978 58.1739 590.212 58.1739C590.665 58.1739 591.048 58.3145 591.36 58.5958C591.688 58.8614 591.853 59.1817 591.853 59.5567C591.853 60.1817 591.688 60.7598 591.36 61.2911C591.048 61.8067 590.501 62.3692 589.72 62.9786C588.563 63.9005 587.251 64.6036 585.782 65.088C584.329 65.5723 582.798 65.8145 581.188 65.8145C577.423 65.8145 574.368 64.6426 572.024 62.2989C569.681 59.9395 568.509 56.8848 568.509 53.1348C568.509 49.338 569.72 46.213 572.142 43.7598C574.563 41.3067 577.642 40.0801 581.376 40.0801C584.626 40.0801 587.29 40.9942 589.368 42.8223C591.462 44.6505 592.509 46.9708 592.509 49.7833C592.509 51.2676 592.353 52.2286 592.04 52.6661C591.728 53.1036 591.118 53.3223 590.212 53.3223ZM577.978 49.8301H584.165C584.493 49.8301 584.728 49.7676 584.868 49.6426C585.009 49.5176 585.079 49.2911 585.079 48.963C585.079 47.5255 584.696 46.3536 583.931 45.4473C583.165 44.5255 582.188 44.0645 581.001 44.0645C579.923 44.0645 578.993 44.5567 578.212 45.5411C577.446 46.5255 577.063 47.7286 577.063 49.1505C577.063 49.4005 577.126 49.5723 577.251 49.6661C577.392 49.7598 577.634 49.8145 577.978 49.8301Z" fill="#132235"/>
<defs>
<radialGradient id="paint0_radial_1382_3609" cx="0" cy="0" r="1" gradientUnits="userSpaceOnUse" gradientTransform="translate(44.0865 87.1495) rotate(-176.764) scale(41.9405 6.71883)">
<stop stop-color="#272727"/>
<stop offset="0.0643" stop-color="#4C4C4C"/>
<stop offset="0.1592" stop-color="#7B7B7B"/>
<stop offset="0.2572" stop-color="#A3A3A3"/>
<stop offset="0.3569" stop-color="#C5C5C5"/>
<stop offset="0.4588" stop-color="#DEDEDE"/>
<stop offset="0.5637" stop-color="#F1F1F1"/>
<stop offset="0.6735" stop-color="#FBFBFB"/>
<stop offset="0.7963" stop-color="white"/>
</radialGradient>
<clipPath id="clip0_1382_3609">
<rect width="38.7266" height="40.3081" fill="white" transform="translate(36.738 28.1611) rotate(24.1254)"/>
</clipPath>
</defs>
</svg>
