<svg width="24" height="24" viewBox="0 0 24 24" fill="none" xmlns="http://www.w3.org/2000/svg">
<rect width="24" height="24" fill="white"/>
<path fill-rule="evenodd" clip-rule="evenodd" d="M11.1429 3.42857C6.88239 3.42857 3.42859 6.88238 3.42859 11.1429C3.42859 15.4033 6.88239 18.8571 11.1429 18.8571C12.9643 18.8571 14.6383 18.2259 15.958 17.1702L19.9654 21.1775C20.3001 21.5123 20.8428 21.5123 21.1775 21.1775C21.5123 20.8428 21.5123 20.3001 21.1775 19.9653L17.1702 15.958C18.2259 14.6383 18.8572 12.9643 18.8572 11.1429C18.8572 6.88238 15.4034 3.42857 11.1429 3.42857ZM11.1429 5.14286C7.82917 5.14286 5.14287 7.82915 5.14287 11.1429C5.14287 14.4566 7.82917 17.1429 11.1429 17.1429C14.4566 17.1429 17.1429 14.4566 17.1429 11.1429C17.1429 7.82915 14.4566 5.14286 11.1429 5.14286Z" fill="#1D2433"/>
</svg>
