<svg width="24" height="25" viewBox="0 0 24 25" fill="none" xmlns="http://www.w3.org/2000/svg">
<path fill-rule="evenodd" clip-rule="evenodd" d="M16 15.1348C17.306 15.1348 18.418 15.9698 18.83 17.1348H20C20.2652 17.1348 20.5196 17.2402 20.7071 17.4277C20.8946 17.6153 21 17.8696 21 18.1348C21 18.4 20.8946 18.6544 20.7071 18.8419C20.5196 19.0295 20.2652 19.1348 20 19.1348H18.83C18.6234 19.7204 18.2403 20.2274 17.7334 20.586C17.2265 20.9447 16.6209 21.1373 16 21.1373C15.3791 21.1373 14.7735 20.9447 14.2666 20.586C13.7597 20.2274 13.3766 19.7204 13.17 19.1348H4C3.73478 19.1348 3.48043 19.0295 3.29289 18.8419C3.10536 18.6544 3 18.4 3 18.1348C3 17.8696 3.10536 17.6153 3.29289 17.4277C3.48043 17.2402 3.73478 17.1348 4 17.1348H13.17C13.377 16.5498 13.7603 16.0432 14.2671 15.6851C14.774 15.3269 15.3794 15.1346 16 15.1348ZM16 17.1348C15.7348 17.1348 15.4804 17.2402 15.2929 17.4277C15.1054 17.6153 15 17.8696 15 18.1348C15 18.4 15.1054 18.6544 15.2929 18.8419C15.4804 19.0295 15.7348 19.1348 16 19.1348C16.2652 19.1348 16.5196 19.0295 16.7071 18.8419C16.8946 18.6544 17 18.4 17 18.1348C17 17.8696 16.8946 17.6153 16.7071 17.4277C16.5196 17.2402 16.2652 17.1348 16 17.1348ZM8 9.13483C8.58899 9.13475 9.16497 9.30805 9.65613 9.63312C10.1473 9.95819 10.5319 10.4206 10.762 10.9628L10.829 11.1348H20C20.2549 11.1351 20.5 11.2327 20.6854 11.4077C20.8707 11.5826 20.9822 11.8218 20.9972 12.0762C21.0121 12.3307 20.9293 12.5812 20.7657 12.7767C20.6021 12.9721 20.3701 13.0977 20.117 13.1278L20 13.1348H10.83C10.6284 13.7051 10.2592 14.2012 9.77073 14.558C9.28229 14.9147 8.69744 15.1156 8.09285 15.1342C7.48827 15.1528 6.89217 14.9883 6.38273 14.6622C5.87328 14.3361 5.47427 13.8636 5.238 13.3068L5.17 13.1348H4C3.74512 13.1345 3.49997 13.0369 3.31463 12.862C3.1293 12.687 3.01777 12.4479 3.00283 12.1934C2.98789 11.939 3.07067 11.6884 3.23426 11.493C3.39786 11.2975 3.6299 11.1719 3.883 11.1418L4 11.1348H5.17C5.37701 10.5498 5.76032 10.0432 6.26715 9.68507C6.77397 9.32689 7.37938 9.13465 8 9.13483ZM8 11.1348C7.73478 11.1348 7.48043 11.2402 7.29289 11.4277C7.10536 11.6153 7 11.8696 7 12.1348C7 12.4 7.10536 12.6544 7.29289 12.8419C7.48043 13.0295 7.73478 13.1348 8 13.1348C8.26522 13.1348 8.51957 13.0295 8.70711 12.8419C8.89464 12.6544 9 12.4 9 12.1348C9 11.8696 8.89464 11.6153 8.70711 11.4277C8.51957 11.2402 8.26522 11.1348 8 11.1348ZM16 3.13483C17.306 3.13483 18.418 3.96983 18.83 5.13483H20C20.2652 5.13483 20.5196 5.24018 20.7071 5.42772C20.8946 5.61526 21 5.86961 21 6.13483C21 6.40004 20.8946 6.6544 20.7071 6.84193C20.5196 7.02947 20.2652 7.13483 20 7.13483H18.83C18.6234 7.72036 18.2403 8.22739 17.7334 8.58604C17.2265 8.94468 16.6209 9.13728 16 9.13728C15.3791 9.13728 14.7735 8.94468 14.2666 8.58604C13.7597 8.22739 13.3766 7.72036 13.17 7.13483H4C3.73478 7.13483 3.48043 7.02947 3.29289 6.84193C3.10536 6.6544 3 6.40004 3 6.13483C3 5.86961 3.10536 5.61526 3.29289 5.42772C3.48043 5.24018 3.73478 5.13483 4 5.13483H13.17C13.377 4.54975 13.7603 4.04325 14.2671 3.68507C14.774 3.32689 15.3794 3.13465 16 3.13483ZM16 5.13483C15.7348 5.13483 15.4804 5.24018 15.2929 5.42772C15.1054 5.61526 15 5.86961 15 6.13483C15 6.40004 15.1054 6.6544 15.2929 6.84193C15.4804 7.02947 15.7348 7.13483 16 7.13483C16.2652 7.13483 16.5196 7.02947 16.7071 6.84193C16.8946 6.6544 17 6.40004 17 6.13483C17 5.86961 16.8946 5.61526 16.7071 5.42772C16.5196 5.24018 16.2652 5.13483 16 5.13483Z" fill="#364B63"/>
</svg>
